<?xml version="1.0" encoding="utf-8"?>
<!-- Generator: Adobe Illustrator 22.0.1, SVG Export Plug-In . SVG Version: 6.00 Build 0)  -->
<svg version="1.1" xmlns="http://www.w3.org/2000/svg" xmlns:xlink="http://www.w3.org/1999/xlink" x="0px" y="0px"
	 viewBox="0 0 841.9 595.3" style="enable-background:new 0 0 841.9 595.3;" xml:space="preserve">
<style type="text/css">
	.st0{fill:#DDDDDD;}
	.st1{fill:#DDDDDD;stroke:#FFFFFF;stroke-width:1.5;}
	.st2{fill:#D12027;}
	.st3{display:none;}
	.st4{display:inline;fill:#DDDDDD;stroke:#BE2126;stroke-miterlimit:10;}
	.st5{display:inline;}
	.st6{fill:#DDDDDD;stroke:#BE2126;stroke-miterlimit:10;}
	.st7{fill:#DDDDDD;stroke:#BE2126;stroke-width:1.5;}
	.st8{display:inline;fill:#DDDDDD;stroke:#BE2126;stroke-width:5;stroke-miterlimit:10;}
	.st9{fill:#DDDDDD;stroke:#BE2126;stroke-width:5;stroke-miterlimit:10;}
	.st10{fill:#DDDDDD;stroke:#BE2126;stroke-width:5;}
	.st11{fill:#BE2126;stroke:#F1F2F2;stroke-miterlimit:10;}
	.st12{fill:#BE2126;stroke:#F1F2F2;}
	.st13{fill:url(#SVGID_1_);}
	.st14{fill:url(#SVGID_2_);}
	.st15{fill:url(#SVGID_3_);}
	.st16{fill:none;stroke:#D12027;stroke-miterlimit:10;}
	.st17{fill:url(#SVGID_4_);}
	.st18{fill:url(#SVGID_5_);}
	.st19{fill:#FFD389;}
	.st20{fill:url(#SVGID_6_);}
	.st21{fill:url(#SVGID_7_);}
	.st22{fill:none;}
	.st23{fill:#6D6E71;}
	.st24{font-family:'Rubik-Medium';}
	.st25{font-size:14px;}
	.st26{fill:url(#SVGID_8_);}
	.st27{fill:none;stroke:#BCBEC0;stroke-miterlimit:10;}
	.st28{fill-rule:evenodd;clip-rule:evenodd;fill:url(#SVGID_9_);}
	.st29{fill-rule:evenodd;clip-rule:evenodd;fill:url(#SVGID_10_);}
	.st30{fill-rule:evenodd;clip-rule:evenodd;fill:url(#SVGID_11_);}
	.st31{fill:none;stroke:#6D6E71;stroke-width:2;stroke-linecap:round;stroke-linejoin:round;stroke-miterlimit:10;}
	.st32{fill-rule:evenodd;clip-rule:evenodd;fill:url(#SVGID_12_);}
	.st33{fill:none;stroke:#BCBEC0;stroke-width:2;stroke-linecap:round;stroke-linejoin:round;stroke-miterlimit:10;}
	.st34{fill:#E6E7E8;}
	.st35{fill-rule:evenodd;clip-rule:evenodd;fill:url(#SVGID_13_);}
</style>
<g id="Layer_1">
	<g id="outlines_1_" class="st3">
		<path id="AL_1_" class="st4" d="M560.6,450.2l0.5,0.2l1.1-2.4l1.3-3.9l2,0.5l2.7,5.3v0.9l-2.4,1.7l2.4,0.3l4.6-2.2l-0.3-6.7
			l-2.2-1.6l-1.8-1.8l0.4-3.5l9.2-1.3l22.6-2.5l5.9-0.5l4.9,0.1l-0.4-1.9l-1.3-0.7l-0.8-1l0.9-2.3l-0.4-4.6l-1.4-4l0.7-4.5l1.5-4.2
			l-0.2-1.5l-1.6-0.6l-0.4-3.2l-2.4-3l-1.8-5.7l-1.2-5.9l-1.6-4.4l-3.3-14l-3.1-6.9l-0.7-4.9l0.1-1.9l-7.9,0.7l-20.5,1.9l-10.7,0.7
			l-0.2,5.6l0.2,14.7l-0.6,27.2l-0.3,12.4l2.5,16.5l1.4,12.9L560.6,450.2z"/>
		<path id="AR_1_" class="st4" d="M524.4,344.6l-5.6-0.6l0.8-2.7l2.7-2.3l0.5-2l-1.6-2.5l-28,1.1l-20.5,0.6l-20.7,0.3l1.3,6.1
			l0.1,7.5l1.2,9.6L455,393l1.8,1.4l2.6-1.1l2.5,1.1l0.4,8.9l22.1-0.2l23.5-0.7l0.8-1.7l-0.3-3.3l-1.5-2.7l1.3-1.2l-1.2-1.9l0.6-2.1
			l1-5.2l2.4-2l-0.7-1.9l3.5-4.9l2.2-1l-0.1-1.5l-0.4-1.5l2.5-5.1l2.2-1l0.2-2.9l1.8-1.2l0.8-3.6l-1.2-3.5l3.7-2.1l0.3-1.8l1.1-3.7
			l0.8-2.7L524.4,344.6z"/>
		<path id="AZ_1_" class="st4" d="M127.4,382.9l-0.3,1.3l0.4,0.9l16.6,9.4l10.6,6.7l12.9,7.6l14.8,8.8l10.8,2.1l22.3,2.4l5.3-34.8
			l6.1-46.6l3.9-27.2l-21.6-3.2l-53.3-9.7l-0.2,1l-2.3,14.5l-1.8,3.3l-2.5-0.2l-1.1-2.3l-2.3-0.4l-1.1-1l-1,0.1l-1.8,1.5l-0.3,6
			l-0.3,1.3l-0.4,11l-1.3,2.1l-0.4,2.9l2.5,4.4l1,4.8l0.6,1l1,0.8l-0.4,2.1l-1.5,1.1l-3,1.4l-1.4,1.6l-1.4,3.2l-0.4,4.3l-2.6,2.5
			l-1.7,0.8l-0.1,5.1l-0.5,1.4l0.4,0.7l3.4,0.4l-0.8,2.6l-1.5,2.1l-3.2,0.4L127.4,382.9z"/>
		<path id="CA_1_" class="st4" d="M116.5,379.5l-17.3-2.4l-8.8-1.3l-0.4-1.6V366l-0.3-2.8l-2.3-3.7l-0.7-2l-3.4-3.7l-2.5-4.1
			l-2.4-0.2l-2.8-0.7l-0.3-0.9l1.3-0.5l-0.5-2.8l-1.3-1.8l-4.2-0.7l-3.4-1.8l-1-2l-2.3-4.2l-2.5-2.7h-2.5l-3.4-1.8l-4-1.6l-3.7-0.4
			l-2.1-2.4l0.4-1.7l1.6-6.2l0.7-1.7v-2.1l-1.4-0.9l-0.4-2.5l-1.3-2.3l-3-5.1l-1.1-2.7l-1.3-4.1l-1.4-4.7l-2.8-3.9l-0.4-2.5l0.7-3.4
			h1l1.8-1.4l1-3.2l-0.9-2.4l-2.4-0.4l-1.7-2.3l-1.8-3.2l-0.2-7.2l0.5-1.7l0.5-2l0.4-2.1l-5-5.5v-1.8l0.3-0.4l0.3-2.8l-1.1-3.5
			l-2-4.2l-2.4-4l-1.6-3.4l0.9-3.2l0.5-5.1l1.6-2.7l0.3-5.7l-1-3.2l-1.4-3.7l-2.4-3.7l0.7-2.8l1.3-3.7l1.6-0.7l0.3-1l2.7-2.3
			l4.6-10.4l0.2-6.5l1.5-4.3l34,10.4l22.5,5.8l-7,27.5l-7.6,29.1l11.1,16.9l37,54.7l15,22.9l-0.4,2.7l2.5,4.6l1,4.7l0.9,1.3l0.6,0.5
			l-0.2,1.2l-1.2,0.9l-3,1.4l-1.7,1.8l-1.5,3.4l-0.4,4.1l-2.3,2.2l-2,1l-0.1,5.4l-0.5,1.7l0.9,1.5l2.6,0.3l-0.4,1.4l-1.2,1.8
			l-3.4,0.5L116.5,379.5z M51.6,336.6l1.1,1.3l-0.2,1.1l-2.8-0.1l-0.5-1.1l-0.5-1.3L51.6,336.6z M53.3,336.6l1.1-0.5l3.2,1.8
			l2.7,1.1l-0.8,0.5l-4-0.2l-1.4-1.4L53.3,336.6z M71.5,354l1.6,2l0.7,0.9l1.3,0.5l0.5-1.3l-0.9-1.6l-2.4-1.8l-1,0.2L71.5,354
			L71.5,354z M70.2,361.6l1.6,2.8l1.1,1.7l-1.3,0.2l-1.1-1.1c0,0-0.6-1.3-0.6-1.7c0-0.4,0-1.9,0-1.9H70.2z"/>
		<path id="CO_1_" class="st4" d="M342.6,247.5l-31.6-3.1l-69.5-7.6l-1.9,19.4l-6.1,44.3l-1.7,12l29.9,3.4l32.9,3.9l30.5,2.6
			l12.6,0.5L342.6,247.5z"/>
		<path id="CT_1_" class="st4" d="M756.9,208.3l3.2-2.8l1.7-1.8l0.7,0.5l2.4-1.3l4.6-1l6.1-3.1l-0.5-3.7l-0.7-3.9l-1.4-5.3l-3.8,1
			l-19.1,4.1l0.5,2.7l1.3,6.4v7.3l-0.8,1.8l1.5,1.9L756.9,208.3z"/>
		<path id="DE_1_" class="st4" d="M741.4,257.7l-0.9,0.4l-3.2-2.1l-1.6-4.1l-1.7-3.2l-2-0.9l-1.8-3.2l0.4-1.8l0.4-2l0.1-1l-0.5,0.1
			l-1.5,0.9l-1.8,1.5l-0.2,0.3l1.2,3.6l2,4.9l3.2,14.1l4.4-0.3l5.3-1L741.4,257.7z"/>
		<path id="FL_1_" class="st4" d="M667.5,431.6l-4.6-0.6l-0.6,0.7l1.3,3.9l-0.4,4.6l-3.6-0.9l-0.2-2.5h-3.6l-4.7,0.6l-28.4,1.7
			l-7.2-0.3l-1.5-1.5l-2.2-3.7h-5.2l-5.8,0.4l-31.1,3.7l-0.3,2.5l1.4,1.4l2.5,1.8l0.3,7.4l2.9-0.5l5.3-1.8l5.3-0.4l3.9-0.5l6.7,1.6
			l7.1,3.4l1.4,1.3l2.5,1l1.4,1.7l0.3,2.4l2.8-1.1h3.4l3.2-1.7l3.2-3.2l2.7,0.2l0.4-1l-0.7-0.9l0.2-1.7l3.5-0.7h2.3l2.5,1.3l3.7,1.3
			l2.1,3.2l2.4,0.9l1,3l3,1.4l1.4,2.3l1.7,0.5l4.6,1.1l1.1,2.7l2.6,3.2v8.3l-1.3,4.1l0.3,2.4l1.1,4.2l1.6,3.5l0.7-0.4l1.3-4
			l-2.3-0.9l-0.3-0.5l1.4-0.5l4,0.9l0.2,1.4l-2.8,4.8l-1.8,2.1l3.2,3.2l2.3,2.7l2.5,4.7l2.5,3.4l1.8,4.4l1.6,0.3l1.4-1.8l1.6,1
			l2.3,3.5l0.5,3.2l2.7,3.9l0.7-1.1l3.4,0.3l3.2,2l3,4.6l0.7,3l0.3,2.5l1,0.9l1.1,0.4l2.1-0.9l1.3-1.4l3.4-0.2l2.7-1.3l2.4-2.8
			l-0.4-1.7l-0.3-2.1l0.5-1.7l-0.3-1.7l2.1-1.1l0.3-3l-0.5-1.6l-0.4-10.5l-1.1-6.7l-4-7.2l-3.2-5.1l-2.3-4.7l-2.5-2.5l-2.5-6.5
			l0.6-1.2l1-1.1l-1.4-2.5l-3.5-3.2l-4.2-4.8L682,455l-4.7-8.3l-3.2-8.5l-2-6.4L667.5,431.6z M683,548.1l2.1-0.5l1.1-0.2l1.3-2
			l2-1.4l1.1,0.4l1.5,0.3l0.4,1l-3.1,1.1l-3.7,1.3l-2,1.1L683,548.1z M694.9,543.7l1.1,1l2.4-1.8l4.7-3.7l3.2-3.4l2.2-5.8l0.9-1.5
			l0.2-3l-0.6,0.4l-0.9,2.5l-1.3,4l-2.8,4.7l-3.9,3.7l-3,1.7L694.9,543.7z"/>
		<path id="GA_1_" class="st4" d="M667.5,430.7l-4.9-0.6l-1.2,1.4l1.4,4.1l-0.3,3.4l-1.9-0.5l-0.2-2.6h-4.6l-4.7,0.6l-28.4,1.7
			l-6.8-0.3l-1.2-1.1l-2.2-3.8l-0.7-2.9l-1.4-0.8L610,429l0.8-1.9l-0.4-4.8l-1.4-4l0.7-4.3l1.5-4.2l-0.2-2.2l-1.7-0.6l-0.4-2.8
			l-2.5-3.1l-1.7-5.4l-1.3-6.1l-1.5-4.2l-3.3-14l-3.1-7l-0.7-4.7l0.1-2l2.9-0.3l11.9-1.4l16.3-1.8l5.5-1l0.4,1.2l-1.9,0.8l-0.8,1.9
			l0.4,1.8l1.2,1.4l3.8,2.4l2.8-0.1l2.8,4.1l0.5,1.4l2,2.5l0.4,1.5l4.1,1.6l2.6,1.9l2,2.6l2,1.1l1.8,1.6l1.2,2.4l1.8,1.7l3.6,1.6
			l2.4,5.3l1.5,4.5l2.5,0.6l1.8,1.7l1.8,5l2.5,1.4l1.5-0.7l0.4,1.1l-2.9,5.4l0.4,2.3l-1.3,3.7l-2,8.8l0.7,5.5L667.5,430.7z"/>
		<path id="IA_1_" class="st4" d="M497.7,201.9l1.8,1.8l0.3,0.6L498,207l0.3,3.5l2.3,3.6l2.7,1.4l2.1,0.3l0.8,1.6l0.2,2.1l2.2,0.9
			l0.8,1l0.4,1.4l3.3,2.9l0.5,1.7l-0.6,2.6l-1.5,3.2l-0.5,2.1l-1.8,1.4l-1.4,0.4l-5,1.3l-1.4,4.2l0.7,1.6l1.5,1.3l-0.2,3.1l-1.7,1.2
			l-0.6,1.6v2.1l-1.2,0.4l-1.5,1.2l-0.4,1.5l0.4,1.5l-1.1,0.9l-2-2.4l-1.2-2.5l-7.3,0.7l-8.8,0.5l-43.2,1.1l-1.4-3.8l-0.4-5.9
			l-1.2-3.7l-0.6-4.6l-1.9-3.2l-0.9-4l-2.4-6.8l-1-4.9l-1.2-1.7l-1.1-2.5l1.5-3.3l1.1-5.4l-2.4-1.9l-0.3-2.1l0.6-2.1l1.6-0.3
			l53.6-0.5l18.6-0.6L497.7,201.9z"/>
		<path id="ID_1_" class="st4" d="M162.7,65l-4.2,15.3l-4,18.3l-3,14.2l-0.4,8.5l1.1,3.9l3.1,2.3l-0.2,3.4l-3.4,3.9l-4,5.8l-0.8,2.5
			l-1.1,1l-1.6,0.7l-3.8,4.7l-0.4,2.7l-0.4,1l0.5,0.9l2.3-0.1l1,2l-2.1,5.1l-1.1,3.7l-7.7,31l18.2,4l34.7,6.9l30.6,5.4l4.3-25.6
			l3.3-21.2l-2.4-2.1l-0.4-2.3l-0.7-1l-1.8,0.9l-0.6,2.3l-2.8,0.4l-3.4-1.4l-3.3,0.1l-2.2,0.6l-3-1.3l-2.1,0.2l-2.1,1.8l-1.8-1
			l-0.6-3.5l0.6-2.5l-2.2-2.5l-2.9-2.3l-2.4-11.5l-0.1-4.1l-0.3-0.1l-0.2,0.4l-4.5,3.1l-1.5-0.2l-2.5-3l-0.2-2.7l6.1-15l-0.4-1.7
			l-3-1l-0.5-1l-2.3-3l-4-9l-2.8-1.3l-1.8-4.3l1.1-4.1l-2.8-6.7l3.9-18.9L162.7,65z"/>
		<path id="IL_1_" class="st4" d="M552,228.9l-0.7-2.3l-1.1-3.2l-1.4-1.6l-1.3-2.3l-0.4-4.8l-14,1.6l-15.3,0.9h-10.8l0.2,1.8
			l1.9,0.8l1,1.2l0.4,1.2l3.4,3l0.6,2.1l-0.6,2.9l-1.5,3.2l-0.7,2.4l-2.1,1.7l-1.7,0.5l-4.6,1.1l-1.1,3.6l0.5,1l1.7,1.6l-0.2,3.8
			l-1.8,1.4l-0.4,1.1v2.5l-1.6,0.5l-1.2,1.1l-0.4,1.1l0.4,1.8l-1.4,1.1L497,262l0.3,3.4l2,6.1l6.1,6.7l5,3.2v3.9l0.6,1.1l5.8,0.5
			l2.4,1.2l-0.6,3.1l-1.9,5.4l-0.7,2.6l1.8,3.2l5.6,4.7l4.2,0.7l1.9,4.5l1.8,3l-0.8,2.5l1.3,3.3l1.5,1.8l1.4-0.3l0.9-1.9l2.1-1.5
			l2.5-0.9l5.4,2.2l0.4-0.2v-1l-1.1-2.4l0.4-2.5l2.1-1.4l3-1.1l-0.4-1.1l-0.7-1.8l1.1-1.1l0.9-2.4v-3.5l0.4-4.3l2.2-2.6l1.6-3.3
			l2.2-3.5l-0.4-4.7l-1.6-2.8l-0.3-2.9l0.7-4.7l-0.6-6.3l-1-13.9l-1.2-13.4l-0.8-10.3L552,228.9z"/>
		<path id="IN_1_" class="st4" d="M555.7,230.4l1.3,0.9l1-0.3l1.8-1.7l2.2-1.6l12.6-1l16.2-1.6l1.4,13.6l4.3,37.4l-0.5,2.5l1.1,1.4
			l0.2,1.1l-2,1.4l-3.2,1.5l-2.8,0.4l-0.4,4.2l-4.1,3.2l-2.5,3.5l0.2,2.1l-0.4,1.2h-3.1l-1.2-1.5L573,300l0.2,2.7l-0.8,0.2l-0.4-0.8
			l-2.1-1.5l-3.2,1.3l-1.2,2.5l-1.1-0.5l-1.4-1.6l-3.9,0.4l-5,0.9l-2.2,1.1v-2.3l0.4-4.1l2-2.5l1.6-3.4l2.4-3.7l-0.4-5.1l-1.6-2.7
			l-0.3-2.8l0.7-4.7l-0.6-6.2l-0.8-11.1l-2.2-26.4L555.7,230.4z"/>
		<path id="KS_1_" class="st4" d="M435.4,268.5l-38.5-0.5l-35.6-1.1l-19.1-0.8l-3.8,56.9l21.3,0.9l39.2,1.8l40.7,0.5l11.1-0.3
			l0.6-30.7l-1.1-9.7l-2.2-1.8l-2.1-2.6l-2-3.2l0.5-2.6l1.5-1.2v-1.8l-0.7-0.6l-2.3-0.2l-3.1-3L435.4,268.5z"/>
		<path id="KY_1_" class="st4" d="M541.9,332l11.1-0.6l0.1-3.6h3.8l26.7-2.8l39.6-3.8l4.9-3.2l3.4-1.8l0.1-1.7l5.3-6.8l3.6-3.2
			l1.8-2.1l-2.9-1.8l-2.2-2.4l-2.6-3.3l-0.4-1.9l-2.3-1.2l-0.8-1.7l-0.2-5.4l-2.3-1.8l-1.7-1l-0.4-2l-1.1,0.2l-1.8,1.1l-2.2,2.4
			l-1.7-1.5l-2.2-0.4l-2.1,1.2h-2l-1.6-1.8l-4.9-0.1l-1.6-4l-2.5-1.3l-1.8,0.7l-3.7,0.2l-0.4,1.8l1.1,1.3l0.3,1.8l-2.5,1.8l-3.3,1.6
			l-2.3,0.4l-0.4,4l-4.3,3.2l-2.3,3.2l0.2,1.9l-0.8,2l-4-0.1l-1.1-1.1l-3.4,1.9l0.2,2.9l-2.1,0.5l-0.7-1.2l-1.5-1.1l-2.4,1l-1.6,3.1
			l-1.9-0.9l-1.2-1.4l-3.2,0.4l-4.9,0.9l-2.5,1.1l-1.1,3l-0.9,0.9l1.3,3.2l-3.7,1.2l-1.7,1.2l-0.4,1.9l1.1,2.1v1.9l-1.4,0.4
			l-5.4-2.2l-2,0.8l-1.8,1.2l-0.7,1.6l1.5,2.1l-0.8,1.6l-0.1,2.9l-2.1,1.1l-1.8,1.5L541.9,332z"/>
		<path id="LA_1_" class="st4" d="M471.4,467.3l7.1-0.3l9,3.2l5.7,1l3.2-1.3l2.8,1l2.8,0.9l0.7-1.8l-2.8-1l-2.3,0.4l-2.4-1.4
			l0.7-1.3l2.7-0.9l1.6,1.3l1.6-0.9l2.8,0.5l1.3,2.1l0.3,2l4,0.3l1.6,1.6l-0.7,1.4l-1.1,0.7l1.4,1.4l7.4,3.2l3.2-1.1l0.9-2.1
			l2.3-0.5l1.6-1.3l1.1,0.9l0.7,2.5l-2,0.7l0.5,0.5l3-1.1l2-3l0.7-0.4l-1.8-0.3l0.7-1.4l-0.2-1.3l1.8-0.4l1-1.1l0.5,0.7l0.5,2.7
			l3.7,0.5l3.5,1.7l0.9,1.3h2.5l1,0.9l2-2.7v-1.3h-1.1l-3-2.4l-5.1-0.7l-2.8-2l1-2.4l2,0.3l0.2-0.5l-1.6-0.9v-0.4h2.8l1.6-2.7
			l-1.1-1.7l-0.3-2.4l-1.3,0.2l-1.7,1.8l-0.5,2.3l-2.7-0.5l-0.9-1.6l1.6-1.7l1.7-1.5l-1.9-5.7l-3-3l0.9-6.4l-0.2-0.4l-1.1,0.2
			l-29.1,1.2l-0.7-2.1l0.7-7.5l7.6-13l-0.8-2.3l1.2-0.4l0.4-1.8l-1.9-1.8l0.1-1.7l-1.8-4l-0.4-4.5l0.1-0.6l-23.2,0.7l-22.1,0.1
			l0.4,8.5l0.6,8.3l0.4,3.2l2.3,4l0.8,3.9l3.8,5.3l0.3,2.7l0.5,0.7l-0.6,7.3l-2.5,4l1.1,2.1l-0.4,2.3l-0.7,6.4l-1.1,2.6l0.2,3.2
			L471.4,467.3z"/>
		<path id="MA_1_" class="st4" d="M788,192.2l-0.4-2l0.7-1.3l2.5-1.3l0.7,2.7l-0.4,1.6l-2.1,1.3v0.9l1.7-1.3l3.4-4l3.4-1.7l3.7-1.3
			l-0.3-2.1l-0.9-2.5l-1.7-2.1l-1.6-0.7l-1.8,0.2l-0.4,0.4l0.9,1.1l1.3-0.7l1.8,1.4l0.7,2.4l-1.6,1.6l-2,0.9l-3.2-0.4l-3.4-5.3
			l-2-2.3h-1.6l-1,0.7l-1.7-2.3l0.3-1.3l2.1-4.6l-2.5-3.9l-3.2,1.6l-1.6,2.5l-16.1,4.1l-12.1,2.2l-0.5,9.3l0.6,4.3l19.3-4.2l9.8-2.5
			l1.8,1.4l3,3.8l2.5,4.1L788,192.2z M799,193.4l1.9-0.6l0.4-1.5l0.9,0.1l0.9,2l-1.1,0.4l-3.4,0.1L799,193.4z M790.7,194.1l2-2.3
			h1.4l1.6,1.3l-2.1,0.9l-1.9,0.9L790.7,194.1z"/>
		<path id="MD_1_" class="st4" d="M741.7,272.6l1.5-3.3l0.4-4.2l-5.5,1l-5.1,0.3l-3.3-14.8l-2-4.8l-1.3-4l-19.5,3.8l-33,6.7l1.8,9.1
			l4.2-4.3l2.2-0.6l1.2-1.3l1.6-2.4l1.4,0.6l2.3-0.2l2.3-1.8l1.8-1.3l1.8-0.5l1.3,1l2.4,1.2l1.7,1.6l1.1,1.2l4.2,1.4l-0.5,2.5
			l5.1,1.8l1.8-2.3l3.2,2.2L713,264l-0.6,2.9l-1.6,2.3v1.8l0.3,0.7l1.8,1.1l3,1l3.8-0.1l2.7,0.9l1.8,0.3l0.9-1.8l-1.3-1.8v-1.6
			l-2.1-1.8l-1.8-4.8l1.1-4.7l-0.2-1.8l-1.1-1.1c0,0,1.3-1.4,1.3-2c0-0.5,0.4-1.8,0.4-1.8l1.7-1.1l1.7-1.4l0.4,0.9l-1.3,1.4
			l-1.1,3.2l0.3,1l1.6,0.3l0.4,4.8l-1.8,0.9l0.3,3.2l0.4-0.2l1-1.7l1.4,1.6l-1.4,1.1l-0.3,3l2.3,3l3.4,0.4l1.4-0.7l2.8,3.7l0.9,0.4
			L741.7,272.6z M729,272.8l1,2.2l0.2,1.6l1,1.7c0,0,0.8-0.8,0.8-1.1c0-0.3-0.6-2.7-0.6-2.7l-0.6-2L729,272.8z"/>
		<path id="ME_1_" class="st4" d="M769,121.4l1.3,0.4v-2.3l0.7-4.8l2.3-4.1l1.3-3.5l-1.7-2.1v-5.3l0.7-0.9l0.7-2.4l-0.2-1.3
			l-0.2-4.2l1.6-4.2l2.5-7.8l1.8-3.7h1.1l1.1,0.2v1l1.1,2l2.4,0.5l0.7-0.7v-0.9l3.5-2.5l1.6-1.6l1.3,0.2l5.3,2.1l1.7,0.9l8,26.3h5.3
			l0.7,1.7l0.2,4.2l2.5,2h0.7l0.2-0.4l-0.4-1l2.5-0.4l1.7,1.8l2,3.2v1.7l-1.8,4.1l-1.7,0.5l-3,2.7l-4.2,4.8c0,0-0.5,0-1.1,0
			c-0.5,0-0.9-1.8-0.9-1.8l-1.6,0.2l-0.9,1.3l-2.1,1.3l-0.9,1.3l1.4,1.3l-0.4,0.5l-0.4,2.4l-1.7-0.2v-1.4l-0.3-1.1l-1.3,0.3
			l-1.6-2.8l-1.8,1.1l1.1,1.3l0.3,1l-0.7,1.1l0.3,2.7l0.2,1.4l-1.4,2.3l-2.5,0.4l-0.3,2.5l-4.7,2.7l-1.1,0.4l-1.4-1.3l-2.7,3.2
			l0.9,2.8l-1.3,1.1l-0.2,3.9l-1,5.5l-1.9-0.8l-0.4-2.7l-3.5-1l-0.2-2.2l-10.3-32.9L769,121.4z M801,135.1l1.3-1.3l1.2,1l0.5,2.1
			l-1.5,0.8L801,135.1z M806.9,129.9l1.6,1.7c0,0,1.1,0.1,1.1-0.2s0.2-1.8,0.2-1.8l0.8-0.7l-0.7-1.6l-1.8,0.6L806.9,129.9z"/>
		<path id="MI_1_" class="st4" d="M574.7,226l16.8-1.7l0.2,1l8.7-1.3l10.5-1.5l0.1-0.5l0.2-1.3l1.8-3.2l1.8-1.5l-0.2-4.5l1.4-1.4
			l1-0.3l0.2-3.2l1.3-2.6l1,0.5l0.2,0.5l0.7,0.2l1.7-0.9l-0.4-8l-2.8-7.2l-2-8l-2.1-2.8l-2.3-1.6l-1.4,1l-3.4,1.6l-1.7,4.4l-2.4,3.2
			l-1,0.5l-1.3-0.5c0,0-2.3-1.3-2.1-1.8s0.4-4.4,0.4-4.4l3-1.1l0.7-3l0.5-2.3l2.1-1.4l-0.3-8.8l-1.4-2l-1.1-0.7l-0.7-1.8l0.7-0.7
			l1.4,0.3l0.2-1.4l-2.3-1.9l-1.1-2.3h-2.3l-4-1.3l-4.8-3h-2.4l-0.5,0.5l-0.9-0.4l-2.7-2l-2.5,1.6l-2.5,2l0.3,3.2l0.9,0.3l1.8,0.4
			l0.4,0.7l-2.3,0.7l-2.3,0.3l-1.3,1.6l-0.3,1.8l0.3,1.4l0.3,4.8l-3.2,1.8l-0.5-0.2V164l1.1-2.1l0.5-2.1l-0.7-0.7l-1.7,0.7l-0.9,3.7
			l-2.4,1l-1.6,1.7l-0.2,0.9l0.5,0.7l-0.5,2.3l-2,0.4v1l0.7,2.1l-1,5.4l-1.4,3.5l0.5,4.1l0.4,1l-0.7,2.1l-0.3,0.7l-0.3,2.4l3.2,5.3
			l2.5,5.7l1.3,4.2l-0.7,4.1l-0.9,5.3l-2.1,4.6l-0.3,2.4l-2.8,2.7L574.7,226z M545.4,162.4l-1.1-1l-1.6-9.1l-3.2-1.1l-1.5-2
			l-11.1-2.5l-2.5-1l-7.1-1.9l-6.8-0.9l-3.4-4.7l0.6-0.4l2.4-0.7l3.2-2v-0.9l0.5-0.5l5.3-0.9l2.1-1.7l3.9-1.8l0.2-1.1l1.7-2.5
			l1.6-0.7l1.1-1.6l2-2l3.9-2.1l4.1-0.4l1,1l-0.3,0.9l-3.2,0.9l-1.3,2.7l-2,0.7l-0.4,2.1l-2.1,2.8l-0.3,2.3l0.7,0.4l0.9-1l3.2-2.5
			l1.1,1.1h2l2.8,0.9l1.3,1l1.3,2.7l2.4,2.4l3.4-0.2l1.3-0.9l1.4,1.1l1.4,0.4l1.1-0.7h1l1.4-0.9l3.5-3.2l3-1l5.8-0.3l4-1.7l2.3-1.1
			l1.3,0.2v5l0.4,0.3l2.5,0.7l1.7-0.4l5.4-1.4l1-1l1.3,0.4v6.1l2.8,2.7l1.1,0.5l1.1,0.9l-1.1,0.3l-0.7-0.3l-3.2-0.4l-1.8,0.5l-2-0.2
			l-2.8,1.3h-1.6l-5.1-1.1l-4.6,0.2l-1.7,2.3L564,146l-2.1,0.7l-1,2.7l-1.1,1l-0.4-0.2l-1.3-1.4l-4,2.1h-0.5l-1-1.4l-0.7,0.2
			l-1.7,3.9l-0.9,3.5l-2.8,6.1L545.4,162.4z M519.4,112.8l1.6-1.8l1.9-0.7l4.7-3.4l2-0.5l0.4,0.4l-4.5,4.5l-2.9,1.7l-1.8,0.8
			L519.4,112.8z M595.1,141l0.5,2.2l2.8,0.2l1.1-1.1c0,0-0.1-1.3-0.4-1.4c-0.3-0.2-1.4-1.7-1.4-1.7l-1.9,0.2l-1.4,0.2l-0.3,1
			L595.1,141z"/>
		<path id="MN_1_" class="st4" d="M416.7,99.3l-0.5,3.4v9l1.4,4.4l1.7,2.9l0.4,8.7l1.6,11.8l1.6,6.4l0.4,5.6v4.7l-1.4,1.6l-1.6,1.1
			v1.3l0.8,1.5l3.6,3.1l0.6,2.8v31.5l52.9-0.5l18.6-0.6l-0.4-5.3l-1.6-1.8l-6.3-4l-3.2-4.7l-3-0.8l-1.8-2.5h-2.8l-3.1-3.3l-0.4-6.1
			l0.1-3.4l1.3-2.6l-0.6-2.4l-2.5-2.7l1.9-5.4l4.7-3.5l1.1-1.2l-0.2-7l0.2-2.6l2.3-2.6l3.3-2.5l1.1-0.2l4-4.4l1.6-0.7l2-3.4l2.1-3.2
			l2.7-2.3l4.2-1.8l8.1-3.6l3.4-1.6l0.5-2l-3.9,0.4l-0.6,1h-0.5l-1.6-2.7l-7.8,0.3l-0.9,0.7h-0.9l-0.4-1.1l-0.7-1.6l-2.3,0.4
			l-2.8,2.8l-1.4,0.7h-2.7l-2.3-0.9v-1.8l-1.1-0.2l-0.4,0.4l-2.3-1.1l-0.4-2.5l-1.3,0.4l-0.4,0.9l-2.1-0.4l-4.7-2.1l-3.4-2.3h-2.5
			l-1.1-0.9l-2,0.5l-1,1l-0.3,1.1h-4.2v-1.8l-5.5-0.3l-0.3-1.3h-4.2l-1.4-1.4l-1.3-5.4l-0.7-4.8l-1.7-0.7l-2-0.4l-0.5,0.2l-0.3,7.2
			l-26.4,0L416.7,99.3z"/>
		<path id="MO_1_" class="st4" d="M529.5,338.1l0.4-5.2l3.7-3l1.7-0.9v-2.5l0.6-1.4l-1-1.4l-2.1,0.3l-1.8-2.2l-1.5-4l0.8-2.3
			l-1.8-2.8l-1.6-4l-4-0.6l-6-4.9l-1.9-3.7l0.7-2.9l1.9-5.3l0.5-2.6l-1.7-0.9l-6.1-0.5l-1-1.7V282l-4.7-3.1l-6.3-6.8l-2-6.4
			l-0.4-3.7l0.6-2.1l-2.3-2.7l-1.1-2.1l-6.8,0.7l-8.8,0.5l-42.8,1.1l1.1,2.3l-0.1,1.9l2,3.2l2.6,3.4l2.7,2.6l2.3,0.2l1.2,1v2.5
			l-1.6,1.4l-0.4,2l1.8,2.8l2.1,2.6l2.3,1.8l1.1,10.2l-0.7,35.1l0.4,5l20.8-0.2l20.5-0.6l28.5-1.1l1.9,3.2l-0.7,2.7l-2.7,2.2
			l-0.4,1.6l4.6,0.4l3.6-1L529.5,338.1z"/>
		<path id="MS_1_" class="st4" d="M539.4,455.6l2.3-3.7l1.6,0.7l6-1.7l1.8,0.3l1.3,0.7h4.6l0.4-1.4l-1.5-13l-2.5-16.7l0.9-39.6
			l-0.2-14.7l0.2-5.5l-4.2,0.3l-17.2,1.4l-11.4,0.4l-0.2,2.8l-2.5,1.1l-2.3,4.5l0.4,1.4l0.1,2.1l-2.5,1l-3.1,4.5l0.7,2l-2.6,2.2
			l-0.9,5l-0.5,1.7l1.4,2.2l-1.3,1.2l1.3,2.5l0.3,3.7l-1.1,2.2l-0.2,0.8l0.4,4.4l1.8,4l-0.1,1.5l2,1.8l-0.6,2.7l-0.8,0.3l0.5,1.7
			l-7.6,13.2l-0.7,7.2l0.4,1.3l21.2-0.6l7.2-0.6l1.7-0.3l0.5,1.2l-0.9,6.2l2.9,2.9l1.9,5.6L539.4,455.6z"/>
		<path id="MT_1_" class="st4" d="M325.8,102.8l-4.7,50.2l-1.1,13.3l-51.9-5.8l-43-6.2l-1.2,9.8l-1.7-1.5l-0.4-2.2l-1.1-1.7
			l-2.9,1.3l-0.6,2.2l-2,0.3l-3.3-1.4l-3.6,0.1l-2.1,0.6l-2.8-1.3l-2.6,0.2l-1.8,1.7l-0.8-0.5l-0.6-3l0.6-2.8l-2.4-2.8l-2.9-2.2
			l-2.2-11.1l-0.1-4.7l-1.4-0.7l-0.5,0.9l-4,2.8l-1.1-0.1l-2-2.5l-0.2-2.5l6.1-15.1l-0.5-2.3l-3.1-1l-0.4-0.8l-2.4-3.1l-4-9.1
			l-2.8-1.4l-1.6-3.7l1.1-4.1l-2.8-6.6l3.9-18.7l28.7,6l16.2,3l28.4,4.7l25.7,3.5l25.6,3.1l27,2.7L325.8,102.8z"/>
		<path id="NC_1_" class="st4" d="M699.5,354.8l-11.2-6.8l-2.7-0.7l-14.6,1.8l-1.4-2.6l-2.5-1.9l-14.7,0.4l-6.5,0.8l-8.1,4l-6,2.4
			l-5.7,1.1l-11.8,1.2l0.1-3.6l1.5-1.1l2.4-0.6l0.6-3.3l3.4-2.2l3.4-1.3l4-3.2l3.9-2l0.6-2.8l3.6-3.3l0.6,0.9l2.2,0.2l2.1-3.2
			l1.5-0.4l2.3,0.3l1.6-3.5l2.2-2.1l0.4-1.6l0.1-3.1l3.9,0.1l33.8-4.9l50.5-10.8l1.8,4.2l3.2,5.7l2.1,2.1l0.5,2l-2.1,0.2l0.7,0.5
			l-0.3,3.7l-2.3,1.1l-0.5,1.8l-1.1,2.5l-3.2,1.4l-2.1-0.3l-1.3-0.2l-1.4-1.1l0.3,1.1v0.9h1.7l0.7,1.1l-1.7,5.5h3.7l0.5,1.4l2-2
			l1.1-0.4l-1.7,3.2l-2.7,4.2h-1.1l-1-0.4l-2.4,0.5l-4.6,2.1l-5.7,4.7l-3,4.1l-1.7,5.7l-0.4,2.1l-4.1,0.4l-4.5,1.3L699.5,354.8z
			 M742.8,331.8l2.3-2.2l2.8-2.3l1.3-0.5l0.2-1.8l-0.5-5.4l-1.3-2L747,316l0.6-0.2l2.4,4.8l0.4,3.9l-0.2,3l-3,1.3l-2.5,2.1l-1,1.1
			L742.8,331.8z"/>
		<path id="ND_1_" class="st4" d="M422.3,151.7l-0.4-5.4l-1.6-6.4l-1.6-12l-0.4-8.5l-1.7-2.8l-1.4-4.7v-9.1l0.5-3.4l-1.6-4.9
			L389.1,94l-16.3-0.5l-23.3-1.1l-22.1-1.9l-0.8,12.7l-4.1,44.7l49.9,3.4l50,1.5V151.7z"/>
		<path id="NE_1_" class="st4" d="M421.7,220.1l-0.9-2l-0.4-1.4l-2.5-1.4l-4.2-1.3l-1.9-1.1l-2.3,0.1l-3.2,0.4l-3.7,1.1l-5.3-3.6
			l-1.9-1.8l-9.4,0.5l-36.4-2.1l-31.3-1.9l-3.8,38.4l29.1,2.9l-1.2,18.5l19.1,0.9l35.6,1.1l38.5,0.5h4l-1.9-2.6l-2.3-3.4l0.1-2
			l-1.2-2.4l-1.7-4.6l-0.4-5.9l-1.2-3.6l-0.4-4.4l-2-3.2l-0.9-4.1l-2.5-6.9l-0.9-4.7L421.7,220.1z"/>
		<path id="NH_1_" class="st4" d="M782.9,164.8l1-2.8l-2.4-1.1l-0.4-2.7l-3.6-1l-0.3-2.6l-10.3-32.9l-0.6,0.1l-0.5,1.4l-0.5-0.4
			l-0.9-0.9l-1.3,1.7l-0.2,2l0.4,7.4l1.7,2.5v3.8l-3.4,4.2l-2.1,0.8v0.6l1,1.7v7.6l-0.7,8.1l-0.2,4.1l0.9,1.2l-0.2,4.1l-0.4,1.3
			l0.9,1l4.5-1.1l12.1-3.1l1.5-2.5l3.5-1.7L782.9,164.8z"/>
		<path id="NJ_1_" class="st4" d="M732,241.1l0.1-1.3l2.4-1.1l1.5-2.5l1.5-2.1l2.9-2.8v-1.1l-5.4-3.6l-0.9-2.4l-2.4-0.3l-0.1-0.8
			l-0.6-1.9l1.9-1l0.2-2.5l-1.1-1.1l0.2-1.1l1.7-2.7v-2.7l2.2-2.7l4.9,2.2l5.6,1.7l2.2,1.1l0.1,1.6l-0.4,2.4l0.4,4l-1.8,1.7l-1,0.9
			l0.4,0.4l2.4-0.3l1-0.7l1.4,3l0.2,8.3l0.5,1l-1,4.8l-2.7,5.7l-2.4,3.5l-0.7,4.2l-1.8,2.1h-0.7l-0.3-2.4l0.7-0.9l-0.2-1.3l-3.5-0.5
			l-4.2-2l-2.8-2.5l-0.9-1.8L732,241.1z"/>
		<path id="NM_1_" class="st4" d="M246,417.7l-14.7-2.3l-1.1,8.4l-13.9-1.8l5.3-34.9l6.1-46.7l3.9-27.1l29.9,3.4l32.8,3.9l28.1,2.5
			l-0.3,9.5l-1.2-0.1l-6.5,85.8l-24.9-1.6l-33.5-3.2l0.6,5.5L246,417.7z"/>
		<path id="NV_1_" class="st4" d="M116.8,193.1l34,7.5l22.8,4.6l-9.3,46.6l-4.7,26.2l-2.9,13.6l-1.8,9.7l-2.3,14.4l-1.5,2.7
			l-1.4-0.1l-1.1-2.3l-2.5-0.4l-1.1-1l-1.6,0.1l-0.8,0.7l-1.6,1.1l-0.3,6.4l-0.3,1.3l-0.4,10.9l-1,1.6l-14.7-22.4l-37-54.5
			l-10.9-16.7l7.5-28.6l7-27.5L116.8,193.1z"/>
		<path id="NY_1_" class="st4" d="M749.3,216.3l0.4-2.4l-0.2-2.1l-2.6-1.3l-5.7-1.8l-5.3-2.3l-0.5-0.4l-2.4-0.3l-1.8-1.3l-1.8-5.2
			l-2.9-0.4l-2.1-2.1l-33.7,7.1l-27.7,5.3l-0.4-5.7l1.4-1.1l1.1-1l0.9-1.4l1.6-1l1.7-1.6l0.4-1.4l1.8-2.4l1-0.9l-0.2-0.9l-1.1-2.7
			l-1.6-0.2l-1.7-5.4l2.5-1.6l3.9-1.3l3.5-1.1l2.8-0.4l5.5-0.2l1.7,1.1l1.4,0.2l1.8-1.1l2.3-1l4.6-0.4l1.8-1.6l1.6-2.8l1.4-1.7h1.8
			l1.7-1l0.2-2l-1.3-1.8l-0.3-1.3l1-1.8v-1.3h-1.6l-1.6-0.7l-0.7-1l-0.2-2.3l5.1-4.8l0.5-0.7l1.3-2.5l2.5-4l2.4-3.2l1.8-2.1l2.1-1.6
			l2.7-1.1l4.8-1.1l2.8,0.2l4-1.3l6.5-1.9l0.6,4.3l2.1,5.7l0.7,4.4l-0.9,3.7l2.3,4l0.7,1.8l-0.8,2.8l3.2,1.5l2.4,9v5.1l-0.5,9.6
			l0.7,4.7l0.6,3.2l1.3,6.4v7.1l-1,2l1.8,2.4l0.4,0.8l-1.7,1.6l0.3,1.1l1.1-0.3l1.3-1.1l2-2.3l1-0.5l1.4,0.5l2,0.2l6.9-3.4l2.5-2.4
			l1.1-1.3l3.7,1.4l-3,3.2l-3.4,2.5l-6.2,4.7l-2.3,0.9L754,219l-3.5,1l-0.9-0.4L749.3,216.3z"/>
		<path id="OH_1_" class="st4" d="M591.6,226.1l1.5,13.6l4.2,36.1l3.4-0.2l2-0.7l3.2,1.6l1.5,3.7l4.7,0.1l1.6,1.8h1.5l2.1-1.2
			l2.7,0.4l1.3,1.1l1.6-1.8l2-1.2l2.1-0.4l0.5,2.4l1.4,0.9l2.3,1.8l0.7,0.2l1.8-0.1l1.1-0.5v-1.8l1.5-1.3l0.1-4.2l1-3.7l1.7-1.1
			l0.9,0.6l0.9,1l0.6,0.2l0.4-0.4l-0.8-2.4v-1.9l1-1.2l2.2-3.2l1.1-1.3l1.9,0.4l1.8-1.3l2.6-2.9l1.9-3.2l0.2-4.7l0.4-4.4v-4
			l-1.1-2.8l1.1-1.6l1.1-1.1l-0.5-2.5l-3.8-22.5l-5.4,3.2l-3.4,2l-3,3.2l-3.5,3.4l-2.8,0.7l-2.5,0.4l-4.8,2.3l-1.8,0.2l-3-2.7
			l-4.6,0.5l-2.3-1.3l-1.9-1.1L591.6,226.1z"/>
		<path id="OK_1_" class="st4" d="M370.4,334.7l-1.6,21.3l-0.8,15.8l0.2,1.4l3.5,3.2l1.5,0.8h0.8l0.8-1.8l1.3,1.7l1.4,0.1l0.3-0.2
			l0.2-1l2.5,1.2l-0.4,3.1l3.3,0.4l2.2,0.9l3.7,0.5l2,1.4l2.2-1.5l3.1,0.6l1.9,2.7l1.1,0.1v2l1.8,0.6l2.2-1.8l1.6,0.5l2.4,0.1l0.6,2
			l3.9,1.6l1.5-0.3l1.7-3.7h1.1l1,1.8l3.7,0.7l3,1.1l2.6,0.7l1.4-0.6l0.6-2.4h4l1.7,0.8l2.4-1.7h1.2l0.5,1.2h3.2l1.8-1.6l2,0.5
			l1.5,1.9l2.6,1.5l3,0.8l1.7,1.1l-0.3-33l-1.2-9.6l-0.1-7.6l-1.3-5.8l-0.5-6l0.1-3.8l-11.1,0.3l-40.7-0.4l-39.2-1.8l-36.4-1.6
			l-0.4,9.4L370.4,334.7z"/>
		<path id="OR_1_" class="st4" d="M68,180.2l24.8,6.3l24.2,5.7l14.9,3.2l7.7-30.8l1.1-3.9l2.1-4.8l-0.6-1.1l-2.2,0.1l-1.1-1.6
			l0.5-1.3l0.4-2.9l4.1-5l1.7-0.8l0.8-0.7l0.6-2.4l0.7-1l3.4-5l3.2-3.5l0.2-2.9l-3-2.2l-1.1-4l-11.5-3.4l-13.4-3l-13,0.3l-1-1.2
			l-4.5,1.6l-4-0.4l-2.1-1.4l-1.1,0.5l-4.1-0.3l-1.7-1.3l-4.2-1.6l-1-0.1l-3.9-1.1l-1.5,1.3l-5.5-0.2l-4.7-3.4l0.2-8.1l-1.8-3.1
			l-3.6-0.5l-0.6-2.2l-2.1-0.4l-5.1,1.8l-2,5.7l-2.8,8.8l-2.8,5.7l-4.4,12.4l-5.7,11.9l-7.1,11.1l-1.7,2.5l-0.7,7.6l-1.1,5.3
			l2.4,3.1L68,180.2z"/>
		<path id="PA_1_" class="st4" d="M655.5,209.5l1.1-0.4l5-4.8l0.6,6.1l29.4-5.7l32.4-6.8l2,2l2.7,0.4l1.8,4.9l2.1,1.7l2.5,0.4
			l0.1,0.1l-2.3,2.8v2.7l-1.7,2.7l-0.2,1.7l1.1,1.1l-0.2,1.7l-2.1,1l0.9,3l0.2,1l2.5,0.3l0.8,2.2l5.2,3.4v0.4l-2.7,2.6l-1.3,1.9
			l-1.5,2.5l-2.4,1.1l-1.2,0.3l-1.8,1.1l-1.4,1.2l-19.7,3.8l-34,6.8l-9.9,1.2l-3.4,0.6l-4.5-19.7l-3.8-22.7L655.5,209.5z"/>
		<path id="RI_1_" class="st4" d="M775.8,195l-0.7-3.9l-1.4-5.3l5-1.3l1.3,1.1l3,3.8l2.5,3.9l-2.5,1.2l-1.1-0.2l-1,1.6l-2.1,1.7
			l-2.5,1L775.8,195z"/>
		<path id="SC_1_" class="st4" d="M675.2,403.8l-1.8-0.9l-1.7-4.9l-2.2-2l-2.2-0.4l-1.3-4l-2.6-5.7l-3.7-1.6l-1.7-1.6l-1.1-2.3
			l-2.1-1.8l-2-1.1l-1.9-2.5l-2.8-2.1l-3.9-1.5l-0.4-1.2l-2-2.5l-0.4-1.3l-3.3-4.7l-3,0.1l-3.4-2.2l-1.1-1.1l-0.2-1.2l0.5-1.4
			l2.4-1.1l-0.7-1.8l5.6-2.4l8.1-4l6.2-0.8l14.4-0.4l2,1.7l1.6,3.1l4-0.7l11.1-1.3l2.4,0.7l11,6.5l8.9,7.3l-4.7,4.7l-2.3,5.4
			l-0.4,5.5l-1.4,0.7l-1,2.4l-2.1,0.5l-1.8,3.2l-2.4,2.4l-2,3l-1.4,0.7l-3.2,3l-2.5,0.2l0.9,2.8l-4.4,4.7l-2,1.4L675.2,403.8z"/>
		<path id="SD_1_" class="st4" d="M422.3,199.7l-0.8,2.8l0.4,2.6l2.3,1.8l-1.1,4.7l-1.6,3.6l1.3,2.9l0.6,1l-1.1,0.1l-0.6-1.4
			l-0.5-1.8l-2.9-1.6l-4.2-1.3l-2.2-1.1l-2.5,0.1l-3.4,0.4l-3.3,1.1l-4.7-3.3l-2.4-2.1l-9.6,0.7l-36.4-2.1l-31.3-1.9l1.3-21.8
			l2.5-29.9l0.4-4.4l50,3.4l50,1.5v2.4l-1.1,1.3l-1.8,1.3l-0.1,1.9l1,1.9l3.6,3l0.4,2.4v31.5L422.3,199.7z"/>
		<path id="TN_1_" class="st4" d="M597.8,356.4l-11.5,1.1l-20.5,1.9l-33,2.4l-10.4,0.4l0.8-0.5l0.8-4l-1.1-3.2l3.4-2l0.4-2.2
			l1.1-3.8l2.6-8.3l0.4-4.9l0.3-0.2l10.8-0.2l11.9-0.7l0.1-3.4l3.1-0.1l26.7-2.9l47.4-4.6l9-1.3l6.7-0.2l2.1-1.7l1.1,0.3l-0.1,2.9
			l-0.4,1.4l-2.1,1.9l-1.4,3.2l-1.8-0.4l-2.1,0.8l-1.9,2.9l-1.2-0.2l-0.7-1.1l-1,0.4l-3.8,3.5l-0.7,2.7l-3.7,1.9l-3.8,3.2l-3.3,1.3
			l-3.9,2.5l-0.5,3.2l-2.2,0.4l-1.8,1.5l-0.2,4.2L597.8,356.4z"/>
		<path id="TX_1_" class="st4" d="M257.1,414.4l32.5,3.2l25.7,1.7l6.5-85.8l47.8,2.1l-1.5,20.5l-0.9,15.8l0.2,1.8l3.9,3.6l1.8,1h1.6
			l0.4-1.1l0.6,0.8l2.1,0.2l1-0.5v-0.2l0.9,0.4l-0.4,3.2l4,0.6l2.1,0.8l3.7,0.6l2.3,1.6l2.5-1.7l2.4,0.5l1.9,2.7l0.7,0.1v1.8l2.9,1
			l2.2-1.8l1.3,0.4l1.8,0.1l0.5,1.8l4.6,1.8l2-0.4l1.7-3.5h0.1l1,1.7l4,0.8l3,1.1l2.8,0.9l2.1-1.1l0.6-2h3.2l1.8,0.9l2.6-1.8h0.4
			l0.4,1.2h4.1l1.7-1.6l1.1,0.4l1.5,1.8l2.9,1.7l3,0.9l2.2,1.2l2.4,1.8l2.7-1.1l1.8,0.7l0.6,17.6l0.6,8.3l0.5,3.6l2.3,3.9l0.8,4
			l3.7,5.2l0.3,2.7l0.5,0.7l-0.6,6.8l-2.5,4.2l1.1,2.3l-0.4,2.1l-0.7,6.3l-1.1,2.6l0.3,3.7l-4.9,1.4l-8.7,4l-0.9,1.7l-2.3,1.7
			l-1.8,1.3l-1.1,0.7l-5,4.7l-2.4,1.8l-4.7,2.8l-5,2.1l-5.5,3l-1.6,1.3l-5.1,3.2l-3,0.5l-3.4,4.8l-3.5,0.3l-0.9,1.7l2,1.7l-1.3,4.8
			l-1.1,4l-1,3.4l-0.7,4l0.7,2.1l1.6,6.1l0.9,5.4l1.6,2.4l-0.9,1.3l-2.7,1.7l-5-3.4l-4.8-1l-1.1,0.4l-2.8-0.5l-3.7-2.7l-4.6-1
			l-6.7-3l-1.8-3.4l-1.1-5.7l-2.8-1.7l-0.5-2l0.5-0.5l0.3-3l-1.1-0.5l-0.5-0.9l1.1-3.9l-1.4-2l-2.8-1.1l-3-3.9l-3.2-5.8l-3.7-2.3
			l0.2-1.7l-4.7-10.8l-0.7-3.7l-1.6-1.7l-0.2-1.3l-5.3-4.7l-2.3-2.7v-1l-2.3-1.8l-6-1l-6.5-0.5l-2.7-2l-4,1.6l-3.2,1.3l-2,2.8
			l-0.9,3.2l-3.9,5.4l-2.1,2.1l-2.3-0.9l-1.6-1l-1.7-0.5l-3.4-2v-0.5l-1.6-1.7l-4.6-1.8l-6.5-6.8l-2-4.1v-7.1l-2.8-5.7l-0.4-2.4
			l-1.4-0.9l-1-1.8l-4.4-1.8l-1.1-1.4l-6.2-6.9l-1.1-2.8l-4.1-2l-1.3-3.9l-2.3-2.5l-1.5-0.4L257.1,414.4z M410.2,538.8l-0.5-6.2
			l-2.4-6.3l-0.5-6.1l1.3-7.2l2.9-6.1l3.1-4.7l2.8-3.2l0.5,0.2l-4.2,5.8l-3.9,5.7l-1.8,5.8l-0.3,4.6l0.8,5.4l2.3,6.3l0.4,4.6
			l0.2,1.3L410.2,538.8z"/>
		<path id="UT_1_" class="st4" d="M209.3,309.3l21.6,3.2l1.7-12l6.1-44.3l2-19.3l-28.3-3.1l1.9-11.5l1.6-9.3l-30.5-5.4l-11-2.2
			l-9.3,46.4l-4.7,26.3l-2.9,13.5l-1.5,8.1L209.3,309.3z"/>
		<path id="VA_1_" class="st4" d="M741.7,273.5l-0.2,2.5l-2.5,3.3l-0.4,4l0.4,3l-1.6,4.4l-1.9,1.7l-1.3-4l0.4-4.7l1.4-3.7l0.6-2.9
			l-0.1-1.5L741.7,273.5z M688.7,312.7l-33.9,4.9l-4.2-0.1l-1.9-0.3l-2.2,1.7l-6.4,0.1l-9,1.4l-5.9,0.5l3.6-2.3l3.6-2v-1.8l5-6.4
			l3.6-3.2l1.9-2.2l3.2,3.8l3.3,0.8l2.4-0.9l1.8-1.3l2.1,1.1l4-1.1l1.5-3.9l2.1,0.6l2.8-2l1.4,0.4l2.5-2.8l0.2-2.4l-0.7-1.1l4.2-9.2
			l1.6-4.6l0.4-4.1l0.6-0.2l1,1.5l1.3,1.1l3.4-0.2l1.5-7.1l2.6-0.5l0.7-2.3l2.5-1.9l1-1.8l1.6-3.8l0.1-4l3.2,1.2l5.8,2.7l0.3-4.6
			l3,1.1l-0.5,2.5l7.6,2.7l1.2,1.6l-0.7,2.9l-1.1,1.1l-0.4,1.5l0.4,2.1l1.8,1.1l3.4,1.2l2.5,0.9l4.3,0.8l1.9,1.8l2.8,0.4l0.8,1.1
			l-0.4,4.1l1.2,1l-0.4,1.7l1.1,0.7l-0.2,1.2l-2.4-0.1l0.1,1.4l2,1.3l0.1,1.2l1.6,1.6l0.4,2.2l-2.3,1.2l1.4,1.3l5.1-1.5l3.2,5.4
			L688.7,312.7z"/>
		<path id="VT_1_" class="st4" d="M739.9,138.4l2.1,5.7l0.7,4.7l-0.9,3.4l2.2,3.9l0.8,2l-0.6,2.3l2.9,1.3l2.5,9.5v4.7l10.1-1.8
			l-0.9-1l0.5-1.7l0.2-3.8l-0.9-1.2l0.2-4.1l0.7-8.2v-7.5l-1-1.6v-1.4l2.5-1l3.1-3.9v-3.2l-1.7-2.4l-0.3-5.1l-22.9,6L739.9,138.4z"
			/>
		<path id="WA_1_" class="st4" d="M74.2,100.1l-2-3.8l-3.6-0.6l-0.4-2.1L66,93.1l-2.5-0.4l-1.6,0.9l-2-2.5l0.3-2.5l2.4-0.3l1.4-3.5
			l-2.3-1l0.2-3.2l3.9-0.5l-2.4-2.4L62,71.3l0.5-2.5v-6.9L60.9,59l2-8.3l1.8,0.4l2.1,2.5l2.4,2.3l2.8,1.7l4,1.8l2.7,0.5l2.5,1.3
			l3,0.9l2-0.2V60l1.1-1l1.8-1.1l0.3,1l0.3,1.6l-2,0.4l-0.3,1.8l1.6,1.3l1,2.1l0.5,1.7l1.3-0.2l0.2-1.1l-0.9-1.1l-0.4-2.8l0.7-1.6
			l-0.5-1.3v-2.3l1.6-3.2l-1-2.3l-2.1-4.2l0.3-0.7l1.2-0.7l3.9,1.3l8.5,2.4l7.6,1.7l17.6,5l20.2,5l13.2,3.1l-4.2,15.4l-4,18.3
			l-3,14.3l-0.4,8.1l0,0l-11.3-3.3l-13.4-3l-12.7,0.3l-1-1.3l-5,1.8l-3.4-0.4l-2.3-1.6l-1.5,0.6l-3.6-0.2l-1.5-1.2l-4.5-1.6l-1-0.1
			l-4.2-1.2L83,111l-5-0.2l-4-2.9L74.2,100.1z M82.6,51.5l1.8-0.2l0.4,1.2l1.3-1.4h2l0.7,1.3L87.5,54l0.5,0.7l-0.6,1.8l-1.2,0.4
			c0,0-0.8,0.1-0.8-0.2c0-0.3,1.3-2.3,1.3-2.3l-1.5-0.5L85,55.1l-0.6,0.5l-1.3-2L82.6,51.5z"/>
		<path id="WI_1_" class="st4" d="M484.1,137.2l2.5,0.4l2.5-0.5l6.5-2.8l2.5-1.7l1.8-0.7l1.7,1.3l-1,1l-1.7,2.7l-0.5,1.7l0.9,0.5
			l1.6-0.9l1-0.2l2.4,0.7l0.5,1l1,0.2l0.5-1l3.5,4.7l7.2,1.1l7.2,1.9l2.3,1l10.8,2.3l1.4,2l3.2,1.1l1.5,9l1.4,1.2l1.3,0.8l-1,2
			l-1.6,1.4l-1.8,4.1l-1.1,2.1l0.2,1.6l1.3,0.3l1-1.7l1.3-0.7l0.7-2l1.7-1.6l2.4-3.5l3.7-5.5l0.7-0.4l0.3,0.9l-0.2,2l-2.5,6l-2.4,5
			l-0.4,2.8l-0.5,2.3l0.7,1.1l-0.2,2.4l-1.7,2.1l-0.4,1.6l0.5,3.2l0.5,3l-1.3,2.3l-0.7,2.5l-0.9,2.7l1,2.1l0.5,5.4l1.4,4l-0.2,2.6
			l-14,1.6l-15.4,0.9h-11.2L506,215l-2.5-0.4l-2.3-1.1l-2-3.2l-0.3-3.2l1.8-2.5l-0.4-1.2l-1.8-1.9l-0.7-2.9l-0.5-6l-1.8-2.2l-6.1-4
			l-3.3-4.7l-3-0.9l-1.9-2.5h-2.8l-2.5-2.9l-0.4-5.7l0.1-3.3l1.3-2.7l-0.7-2.8l-2.2-2.5l1.6-4.7l4.6-3.3l1.4-1.7l-0.2-7.1l0.2-2.5
			l2.1-2.5L484.1,137.2z"/>
		<path id="WV_1_" class="st4" d="M675.1,264l5.1-5.3l2.3-0.7l1.4-1.3l1.3-1.9l1,0.3l2.7-0.2l4-3.2l1.3-0.4l1.1,0.9l2.3,1.1l2.6,2.6
			l-0.4,3.8l-4.7-2.3l-4.2-1.6l-0.1,5.2l-2.3,5l-2.5,2.1l-0.7,2l-2.6,0.4l-1.5,7.1l-2.5,0.2l-1-0.9l-1.1-1.8l-1.9,0.4l-0.4,4.5
			l-1.6,4.5l-4.4,9.7l0.8,1.2l-0.1,1.8l-1.9,2.2l-1.4-0.4l-2.7,2l-2.5-0.7l-1.6,4.3l-3.3,0.9l-2.2-1.1l-2.2,1.7l-2,0.6l-2.8-0.7
			l-3.3-4l-3.1-1.9l-2.2-2.2l-2.5-3.2l-0.4-2l-2.5-1.5l-0.5-1.1l-0.2-4.9l0.3,0.1l2.1-0.2l1.6-0.9v-1.9l1.5-1.3l0.1-4.6l0.8-3.2
			l1-0.6l0.4,0.3l0.9,1l1.5,0.4l1-1.1l-0.9-2.7v-1.4l2.7-4l1.1-1.1l1.8,0.4l2.3-1.6l2.7-3l2.1-3.6l0.2-4.9l0.4-4.2v-4.3l-1-2.6
			l0.8-1.1l0.7-0.6l3.8,16.9l3.8-0.7l9.8-1.1L675.1,264z"/>
		<path id="WY_1_" class="st4" d="M318.7,182.8l-1.3,22.3l-3.9,38.6l-2.4-0.3l-73.1-8l-24.5-2.6l1.8-10.5l6.1-36l3.3-21.2l1.1-9.8
			l42.3,6.1l51.9,5.7L318.7,182.8z"/>
		<g id="DC_1_" class="st5">
			<path id="DC1_1_" class="st6" d="M712.8,263.5l-1-1.4l-0.9-0.7l1-1.4l1.9,1.3L712.8,263.5z"/>
			<circle id="DC2_1_" class="st7" cx="712.3" cy="261.8" r="4.4"/>
		</g>
	</g>
	<g id="outlines_2_" class="st3">
		<path id="AL_2_" class="st8" d="M560.6,450.2l0.5,0.2l1.1-2.4l1.3-3.9l2,0.5l2.7,5.3v0.9l-2.4,1.7l2.4,0.3l4.6-2.2l-0.3-6.7
			l-2.2-1.6l-1.8-1.8l0.4-3.5l9.2-1.3l22.6-2.5l5.9-0.5l4.9,0.1l-0.4-1.9l-1.3-0.7l-0.8-1l0.9-2.3l-0.4-4.6l-1.4-4l0.7-4.5l1.5-4.2
			l-0.2-1.5l-1.6-0.6l-0.4-3.2l-2.4-3l-1.8-5.7l-1.2-5.9l-1.6-4.4l-3.3-14l-3.1-6.9l-0.7-4.9l0.1-1.9l-7.9,0.7l-20.5,1.9l-10.7,0.7
			l-0.2,5.6l0.2,14.7l-0.6,27.2l-0.3,12.4l2.5,16.5l1.4,12.9L560.6,450.2z"/>
		<path id="AR_2_" class="st8" d="M524.4,344.6l-5.6-0.6l0.8-2.7l2.7-2.3l0.5-2l-1.6-2.5l-28,1.1l-20.5,0.6l-20.7,0.3l1.3,6.1
			l0.1,7.5l1.2,9.6L455,393l1.8,1.4l2.6-1.1l2.5,1.1l0.4,8.9l22.1-0.2l23.5-0.7l0.8-1.7l-0.3-3.3l-1.5-2.7l1.3-1.2l-1.2-1.9l0.6-2.1
			l1-5.2l2.4-2l-0.7-1.9l3.5-4.9l2.2-1l-0.1-1.5l-0.4-1.5l2.5-5.1l2.2-1l0.2-2.9l1.8-1.2l0.8-3.6l-1.2-3.5l3.7-2.1l0.3-1.8l1.1-3.7
			l0.8-2.7L524.4,344.6z"/>
		<path id="AZ_2_" class="st8" d="M127.4,382.9l-0.3,1.3l0.4,0.9l16.6,9.4l10.6,6.7l12.9,7.6l14.8,8.8l10.8,2.1l22.3,2.4l5.3-34.8
			l6.1-46.6l3.9-27.2l-21.6-3.2l-53.3-9.7l-0.2,1l-2.3,14.5l-1.8,3.3l-2.5-0.2l-1.1-2.3l-2.3-0.4l-1.1-1l-1,0.1l-1.8,1.5l-0.3,6
			l-0.3,1.3l-0.4,11l-1.3,2.1l-0.4,2.9l2.5,4.4l1,4.8l0.6,1l1,0.8l-0.4,2.1l-1.5,1.1l-3,1.4l-1.4,1.6l-1.4,3.2l-0.4,4.3l-2.6,2.5
			l-1.7,0.8l-0.1,5.1l-0.5,1.4l0.4,0.7l3.4,0.4l-0.8,2.6l-1.5,2.1l-3.2,0.4L127.4,382.9z"/>
		<path id="CA_2_" class="st8" d="M116.5,379.5l-17.3-2.4l-8.8-1.3l-0.4-1.6V366l-0.3-2.8l-2.3-3.7l-0.7-2l-3.4-3.7l-2.5-4.1
			l-2.4-0.2l-2.8-0.7l-0.3-0.9l1.3-0.5l-0.5-2.8l-1.3-1.8l-4.2-0.7l-3.4-1.8l-1-2l-2.3-4.2l-2.5-2.7h-2.5l-3.4-1.8l-4-1.6l-3.7-0.4
			l-2.1-2.4l0.4-1.7l1.6-6.2l0.7-1.7v-2.1l-1.4-0.9l-0.4-2.5l-1.3-2.3l-3-5.1l-1.1-2.7l-1.3-4.1l-1.4-4.7l-2.8-3.9l-0.4-2.5l0.7-3.4
			h1l1.8-1.4l1-3.2l-0.9-2.4l-2.4-0.4l-1.7-2.3l-1.8-3.2l-0.2-7.2l0.5-1.7l0.5-2l0.4-2.1l-5-5.5v-1.8l0.3-0.4l0.3-2.8l-1.1-3.5
			l-2-4.2l-2.4-4l-1.6-3.4l0.9-3.2l0.5-5.1l1.6-2.7l0.3-5.7l-1-3.2l-1.4-3.7l-2.4-3.7l0.7-2.8l1.3-3.7l1.6-0.7l0.3-1l2.7-2.3
			l4.6-10.4l0.2-6.5l1.5-4.3l34,10.4l22.5,5.8l-7,27.5l-7.6,29.1l11.1,16.9l37,54.7l15,22.9l-0.4,2.7l2.5,4.6l1,4.7l0.9,1.3l0.6,0.5
			l-0.2,1.2l-1.2,0.9l-3,1.4l-1.7,1.8l-1.5,3.4l-0.4,4.1l-2.3,2.2l-2,1l-0.1,5.4l-0.5,1.7l0.9,1.5l2.6,0.3l-0.4,1.4l-1.2,1.8
			l-3.4,0.5L116.5,379.5z M51.6,336.6l1.1,1.3l-0.2,1.1l-2.8-0.1l-0.5-1.1l-0.5-1.3L51.6,336.6z M53.3,336.6l1.1-0.5l3.2,1.8
			l2.7,1.1l-0.8,0.5l-4-0.2l-1.4-1.4L53.3,336.6z M71.5,354l1.6,2l0.7,0.9l1.3,0.5l0.5-1.3l-0.9-1.6l-2.4-1.8l-1,0.2L71.5,354
			L71.5,354z M70.2,361.6l1.6,2.8l1.1,1.7l-1.3,0.2l-1.1-1.1c0,0-0.6-1.3-0.6-1.7c0-0.4,0-1.9,0-1.9H70.2z"/>
		<path id="CO_2_" class="st8" d="M342.6,247.5l-31.6-3.1l-69.5-7.6l-1.9,19.4l-6.1,44.3l-1.7,12l29.9,3.4l32.9,3.9l30.5,2.6
			l12.6,0.5L342.6,247.5z"/>
		<path id="CT_2_" class="st8" d="M756.9,208.3l3.2-2.8l1.7-1.8l0.7,0.5l2.4-1.3l4.6-1l6.1-3.1l-0.5-3.7l-0.7-3.9l-1.4-5.3l-3.8,1
			l-19.1,4.1l0.5,2.7l1.3,6.4v7.3l-0.8,1.8l1.5,1.9L756.9,208.3z"/>
		<path id="DE_2_" class="st8" d="M741.4,257.7l-0.9,0.4l-3.2-2.1l-1.6-4.1l-1.7-3.2l-2-0.9l-1.8-3.2l0.4-1.8l0.4-2l0.1-1l-0.5,0.1
			l-1.5,0.9l-1.8,1.5l-0.2,0.3l1.2,3.6l2,4.9l3.2,14.1l4.4-0.3l5.3-1L741.4,257.7z"/>
		<path id="FL_2_" class="st8" d="M667.5,431.6l-4.6-0.6l-0.6,0.7l1.3,3.9l-0.4,4.6l-3.6-0.9l-0.2-2.5h-3.6l-4.7,0.6l-28.4,1.7
			l-7.2-0.3l-1.5-1.5l-2.2-3.7h-5.2l-5.8,0.4l-31.1,3.7l-0.3,2.5l1.4,1.4l2.5,1.8l0.3,7.4l2.9-0.5l5.3-1.8l5.3-0.4l3.9-0.5l6.7,1.6
			l7.1,3.4l1.4,1.3l2.5,1l1.4,1.7l0.3,2.4l2.8-1.1h3.4l3.2-1.7l3.2-3.2l2.7,0.2l0.4-1l-0.7-0.9l0.2-1.7l3.5-0.7h2.3l2.5,1.3l3.7,1.3
			l2.1,3.2l2.4,0.9l1,3l3,1.4l1.4,2.3l1.7,0.5l4.6,1.1l1.1,2.7l2.6,3.2v8.3l-1.3,4.1l0.3,2.4l1.1,4.2l1.6,3.5l0.7-0.4l1.3-4
			l-2.3-0.9l-0.3-0.5l1.4-0.5l4,0.9l0.2,1.4l-2.8,4.8l-1.8,2.1l3.2,3.2l2.3,2.7l2.5,4.7l2.5,3.4l1.8,4.4l1.6,0.3l1.4-1.8l1.6,1
			l2.3,3.5l0.5,3.2l2.7,3.9l0.7-1.1l3.4,0.3l3.2,2l3,4.6l0.7,3l0.3,2.5l1,0.9l1.1,0.4l2.1-0.9l1.3-1.4l3.4-0.2l2.7-1.3l2.4-2.8
			l-0.4-1.7l-0.3-2.1l0.5-1.7l-0.3-1.7l2.1-1.1l0.3-3l-0.5-1.6l-0.4-10.5l-1.1-6.7l-4-7.2l-3.2-5.1l-2.3-4.7l-2.5-2.5l-2.5-6.5
			l0.6-1.2l1-1.1l-1.4-2.5l-3.5-3.2l-4.2-4.8L682,455l-4.7-8.3l-3.2-8.5l-2-6.4L667.5,431.6z M683,548.1l2.1-0.5l1.1-0.2l1.3-2
			l2-1.4l1.1,0.4l1.5,0.3l0.4,1l-3.1,1.1l-3.7,1.3l-2,1.1L683,548.1z M694.9,543.7l1.1,1l2.4-1.8l4.7-3.7l3.2-3.4l2.2-5.8l0.9-1.5
			l0.2-3l-0.6,0.4l-0.9,2.5l-1.3,4l-2.8,4.7l-3.9,3.7l-3,1.7L694.9,543.7z"/>
		<path id="GA_2_" class="st8" d="M667.5,430.7l-4.9-0.6l-1.2,1.4l1.4,4.1l-0.3,3.4l-1.9-0.5l-0.2-2.6h-4.6l-4.7,0.6l-28.4,1.7
			l-6.8-0.3l-1.2-1.1l-2.2-3.8l-0.7-2.9l-1.4-0.8L610,429l0.8-1.9l-0.4-4.8l-1.4-4l0.7-4.3l1.5-4.2l-0.2-2.2l-1.7-0.6l-0.4-2.8
			l-2.5-3.1l-1.7-5.4l-1.3-6.1l-1.5-4.2l-3.3-14l-3.1-7l-0.7-4.7l0.1-2l2.9-0.3l11.9-1.4l16.3-1.8l5.5-1l0.4,1.2l-1.9,0.8l-0.8,1.9
			l0.4,1.8l1.2,1.4l3.8,2.4l2.8-0.1l2.8,4.1l0.5,1.4l2,2.5l0.4,1.5l4.1,1.6l2.6,1.9l2,2.6l2,1.1l1.8,1.6l1.2,2.4l1.8,1.7l3.6,1.6
			l2.4,5.3l1.5,4.5l2.5,0.6l1.8,1.7l1.8,5l2.5,1.4l1.5-0.7l0.4,1.1l-2.9,5.4l0.4,2.3l-1.3,3.7l-2,8.8l0.7,5.5L667.5,430.7z"/>
		<path id="IA_2_" class="st8" d="M497.7,201.9l1.8,1.8l0.3,0.6L498,207l0.3,3.5l2.3,3.6l2.7,1.4l2.1,0.3l0.8,1.6l0.2,2.1l2.2,0.9
			l0.8,1l0.4,1.4l3.3,2.9l0.5,1.7l-0.6,2.6l-1.5,3.2l-0.5,2.1l-1.8,1.4l-1.4,0.4l-5,1.3l-1.4,4.2l0.7,1.6l1.5,1.3l-0.2,3.1l-1.7,1.2
			l-0.6,1.6v2.1l-1.2,0.4l-1.5,1.2l-0.4,1.5l0.4,1.5l-1.1,0.9l-2-2.4l-1.2-2.5l-7.3,0.7l-8.8,0.5l-43.2,1.1l-1.4-3.8l-0.4-5.9
			l-1.2-3.7l-0.6-4.6l-1.9-3.2l-0.9-4l-2.4-6.8l-1-4.9l-1.2-1.7l-1.1-2.5l1.5-3.3l1.1-5.4l-2.4-1.9l-0.3-2.1l0.6-2.1l1.6-0.3
			l53.6-0.5l18.6-0.6L497.7,201.9z"/>
		<path id="ID_2_" class="st8" d="M162.7,65l-4.2,15.3l-4,18.3l-3,14.2l-0.4,8.5l1.1,3.9l3.1,2.3l-0.2,3.4l-3.4,3.9l-4,5.8l-0.8,2.5
			l-1.1,1l-1.6,0.7l-3.8,4.7l-0.4,2.7l-0.4,1l0.5,0.9l2.3-0.1l1,2l-2.1,5.1l-1.1,3.7l-7.7,31l18.2,4l34.7,6.9l30.6,5.4l4.3-25.6
			l3.3-21.2l-2.4-2.1l-0.4-2.3l-0.7-1l-1.8,0.9l-0.6,2.3l-2.8,0.4l-3.4-1.4l-3.3,0.1l-2.2,0.6l-3-1.3l-2.1,0.2l-2.1,1.8l-1.8-1
			l-0.6-3.5l0.6-2.5l-2.2-2.5l-2.9-2.3l-2.4-11.5l-0.1-4.1l-0.3-0.1l-0.2,0.4l-4.5,3.1l-1.5-0.2l-2.5-3l-0.2-2.7l6.1-15l-0.4-1.7
			l-3-1l-0.5-1l-2.3-3l-4-9l-2.8-1.3l-1.8-4.3l1.1-4.1l-2.8-6.7l3.9-18.9L162.7,65z"/>
		<path id="IL_2_" class="st8" d="M552,228.9l-0.7-2.3l-1.1-3.2l-1.4-1.6l-1.3-2.3l-0.4-4.8l-14,1.6l-15.3,0.9h-10.8l0.2,1.8
			l1.9,0.8l1,1.2l0.4,1.2l3.4,3l0.6,2.1l-0.6,2.9l-1.5,3.2l-0.7,2.4l-2.1,1.7l-1.7,0.5l-4.6,1.1l-1.1,3.6l0.5,1l1.7,1.6l-0.2,3.8
			l-1.8,1.4l-0.4,1.1v2.5l-1.6,0.5l-1.2,1.1l-0.4,1.1l0.4,1.8l-1.4,1.1L497,262l0.3,3.4l2,6.1l6.1,6.7l5,3.2v3.9l0.6,1.1l5.8,0.5
			l2.4,1.2l-0.6,3.1l-1.9,5.4l-0.7,2.6l1.8,3.2l5.6,4.7l4.2,0.7l1.9,4.5l1.8,3l-0.8,2.5l1.3,3.3l1.5,1.8l1.4-0.3l0.9-1.9l2.1-1.5
			l2.5-0.9l5.4,2.2l0.4-0.2v-1l-1.1-2.4l0.4-2.5l2.1-1.4l3-1.1l-0.4-1.1l-0.7-1.8l1.1-1.1l0.9-2.4v-3.5l0.4-4.3l2.2-2.6l1.6-3.3
			l2.2-3.5l-0.4-4.7l-1.6-2.8l-0.3-2.9l0.7-4.7l-0.6-6.3l-1-13.9l-1.2-13.4l-0.8-10.3L552,228.9z"/>
		<path id="IN_2_" class="st8" d="M555.7,230.4l1.3,0.9l1-0.3l1.8-1.7l2.2-1.6l12.6-1l16.2-1.6l1.4,13.6l4.3,37.4l-0.5,2.5l1.1,1.4
			l0.2,1.1l-2,1.4l-3.2,1.5l-2.8,0.4l-0.4,4.2l-4.1,3.2l-2.5,3.5l0.2,2.1l-0.4,1.2h-3.1l-1.2-1.5L573,300l0.2,2.7l-0.8,0.2l-0.4-0.8
			l-2.1-1.5l-3.2,1.3l-1.2,2.5l-1.1-0.5l-1.4-1.6l-3.9,0.4l-5,0.9l-2.2,1.1v-2.3l0.4-4.1l2-2.5l1.6-3.4l2.4-3.7l-0.4-5.1l-1.6-2.7
			l-0.3-2.8l0.7-4.7l-0.6-6.2l-0.8-11.1l-2.2-26.4L555.7,230.4z"/>
		<path id="KS_2_" class="st8" d="M435.4,268.5l-38.5-0.5l-35.6-1.1l-19.1-0.8l-3.8,56.9l21.3,0.9l39.2,1.8l40.7,0.5l11.1-0.3
			l0.6-30.7l-1.1-9.7l-2.2-1.8l-2.1-2.6l-2-3.2l0.5-2.6l1.5-1.2v-1.8l-0.7-0.6l-2.3-0.2l-3.1-3L435.4,268.5z"/>
		<path id="KY_2_" class="st8" d="M541.9,332l11.1-0.6l0.1-3.6h3.8l26.7-2.8l39.6-3.8l4.9-3.2l3.4-1.8l0.1-1.7l5.3-6.8l3.6-3.2
			l1.8-2.1l-2.9-1.8l-2.2-2.4l-2.6-3.3l-0.4-1.9l-2.3-1.2l-0.8-1.7l-0.2-5.4l-2.3-1.8l-1.7-1l-0.4-2l-1.1,0.2l-1.8,1.1l-2.2,2.4
			l-1.7-1.5l-2.2-0.4l-2.1,1.2h-2l-1.6-1.8l-4.9-0.1l-1.6-4l-2.5-1.3l-1.8,0.7l-3.7,0.2l-0.4,1.8l1.1,1.3l0.3,1.8l-2.5,1.8l-3.3,1.6
			l-2.3,0.4l-0.4,4l-4.3,3.2l-2.3,3.2l0.2,1.9l-0.8,2l-4-0.1l-1.1-1.1l-3.4,1.9l0.2,2.9l-2.1,0.5l-0.7-1.2l-1.5-1.1l-2.4,1l-1.6,3.1
			l-1.9-0.9l-1.2-1.4l-3.2,0.4l-4.9,0.9l-2.5,1.1l-1.1,3l-0.9,0.9l1.3,3.2l-3.7,1.2l-1.7,1.2l-0.4,1.9l1.1,2.1v1.9l-1.4,0.4
			l-5.4-2.2l-2,0.8l-1.8,1.2l-0.7,1.6l1.5,2.1l-0.8,1.6l-0.1,2.9l-2.1,1.1l-1.8,1.5L541.9,332z"/>
		<path id="LA_2_" class="st8" d="M471.4,467.3l7.1-0.3l9,3.2l5.7,1l3.2-1.3l2.8,1l2.8,0.9l0.7-1.8l-2.8-1l-2.3,0.4l-2.4-1.4
			l0.7-1.3l2.7-0.9l1.6,1.3l1.6-0.9l2.8,0.5l1.3,2.1l0.3,2l4,0.3l1.6,1.6l-0.7,1.4l-1.1,0.7l1.4,1.4l7.4,3.2l3.2-1.1l0.9-2.1
			l2.3-0.5l1.6-1.3l1.1,0.9l0.7,2.5l-2,0.7l0.5,0.5l3-1.1l2-3l0.7-0.4l-1.8-0.3l0.7-1.4l-0.2-1.3l1.8-0.4l1-1.1l0.5,0.7l0.5,2.7
			l3.7,0.5l3.5,1.7l0.9,1.3h2.5l1,0.9l2-2.7v-1.3h-1.1l-3-2.4l-5.1-0.7l-2.8-2l1-2.4l2,0.3l0.2-0.5l-1.6-0.9v-0.4h2.8l1.6-2.7
			l-1.1-1.7l-0.3-2.4l-1.3,0.2l-1.7,1.8l-0.5,2.3l-2.7-0.5l-0.9-1.6l1.6-1.7l1.7-1.5l-1.9-5.7l-3-3l0.9-6.4l-0.2-0.4l-1.1,0.2
			l-29.1,1.2l-0.7-2.1l0.7-7.5l7.6-13l-0.8-2.3l1.2-0.4l0.4-1.8l-1.9-1.8l0.1-1.7l-1.8-4l-0.4-4.5l0.1-0.6l-23.2,0.7l-22.1,0.1
			l0.4,8.5l0.6,8.3l0.4,3.2l2.3,4l0.8,3.9l3.8,5.3l0.3,2.7l0.5,0.7l-0.6,7.3l-2.5,4l1.1,2.1l-0.4,2.3l-0.7,6.4l-1.1,2.6l0.2,3.2
			L471.4,467.3z"/>
		<path id="MA_2_" class="st8" d="M788,192.2l-0.4-2l0.7-1.3l2.5-1.3l0.7,2.7l-0.4,1.6l-2.1,1.3v0.9l1.7-1.3l3.4-4l3.4-1.7l3.7-1.3
			l-0.3-2.1l-0.9-2.5l-1.7-2.1l-1.6-0.7l-1.8,0.2l-0.4,0.4l0.9,1.1l1.3-0.7l1.8,1.4l0.7,2.4l-1.6,1.6l-2,0.9l-3.2-0.4l-3.4-5.3
			l-2-2.3h-1.6l-1,0.7l-1.7-2.3l0.3-1.3l2.1-4.6l-2.5-3.9l-3.2,1.6l-1.6,2.5l-16.1,4.1l-12.1,2.2l-0.5,9.3l0.6,4.3l19.3-4.2l9.8-2.5
			l1.8,1.4l3,3.8l2.5,4.1L788,192.2z M799,193.4l1.9-0.6l0.4-1.5l0.9,0.1l0.9,2l-1.1,0.4l-3.4,0.1L799,193.4z M790.7,194.1l2-2.3
			h1.4l1.6,1.3l-2.1,0.9l-1.9,0.9L790.7,194.1z"/>
		<path id="MD_2_" class="st8" d="M741.7,272.6l1.5-3.3l0.4-4.2l-5.5,1l-5.1,0.3l-3.3-14.8l-2-4.8l-1.3-4l-19.5,3.8l-33,6.7l1.8,9.1
			l4.2-4.3l2.2-0.6l1.2-1.3l1.6-2.4l1.4,0.6l2.3-0.2l2.3-1.8l1.8-1.3l1.8-0.5l1.3,1l2.4,1.2l1.7,1.6l1.1,1.2l4.2,1.4l-0.5,2.5
			l5.1,1.8l1.8-2.3l3.2,2.2L713,264l-0.6,2.9l-1.6,2.3v1.8l0.3,0.7l1.8,1.1l3,1l3.8-0.1l2.7,0.9l1.8,0.3l0.9-1.8l-1.3-1.8v-1.6
			l-2.1-1.8l-1.8-4.8l1.1-4.7l-0.2-1.8l-1.1-1.1c0,0,1.3-1.4,1.3-2c0-0.5,0.4-1.8,0.4-1.8l1.7-1.1l1.7-1.4l0.4,0.9l-1.3,1.4
			l-1.1,3.2l0.3,1l1.6,0.3l0.4,4.8l-1.8,0.9l0.3,3.2l0.4-0.2l1-1.7l1.4,1.6l-1.4,1.1l-0.3,3l2.3,3l3.4,0.4l1.4-0.7l2.8,3.7l0.9,0.4
			L741.7,272.6z M729,272.8l1,2.2l0.2,1.6l1,1.7c0,0,0.8-0.8,0.8-1.1c0-0.3-0.6-2.7-0.6-2.7l-0.6-2L729,272.8z"/>
		<path id="ME_2_" class="st8" d="M769,121.4l1.3,0.4v-2.3l0.7-4.8l2.3-4.1l1.3-3.5l-1.7-2.1v-5.3l0.7-0.9l0.7-2.4l-0.2-1.3
			l-0.2-4.2l1.6-4.2l2.5-7.8l1.8-3.7h1.1l1.1,0.2v1l1.1,2l2.4,0.5l0.7-0.7v-0.9l3.5-2.5l1.6-1.6l1.3,0.2l5.3,2.1l1.7,0.9l8,26.3h5.3
			l0.7,1.7l0.2,4.2l2.5,2h0.7l0.2-0.4l-0.4-1l2.5-0.4l1.7,1.8l2,3.2v1.7l-1.8,4.1l-1.7,0.5l-3,2.7l-4.2,4.8c0,0-0.5,0-1.1,0
			c-0.5,0-0.9-1.8-0.9-1.8l-1.6,0.2l-0.9,1.3l-2.1,1.3l-0.9,1.3l1.4,1.3l-0.4,0.5l-0.4,2.4l-1.7-0.2v-1.4l-0.3-1.1l-1.3,0.3
			l-1.6-2.8l-1.8,1.1l1.1,1.3l0.3,1l-0.7,1.1l0.3,2.7l0.2,1.4l-1.4,2.3l-2.5,0.4l-0.3,2.5l-4.7,2.7l-1.1,0.4l-1.4-1.3l-2.7,3.2
			l0.9,2.8l-1.3,1.1l-0.2,3.9l-1,5.5l-1.9-0.8l-0.4-2.7l-3.5-1l-0.2-2.2l-10.3-32.9L769,121.4z M801,135.1l1.3-1.3l1.2,1l0.5,2.1
			l-1.5,0.8L801,135.1z M806.9,129.9l1.6,1.7c0,0,1.1,0.1,1.1-0.2s0.2-1.8,0.2-1.8l0.8-0.7l-0.7-1.6l-1.8,0.6L806.9,129.9z"/>
		<path id="MI_2_" class="st8" d="M574.7,226l16.8-1.7l0.2,1l8.7-1.3l10.5-1.5l0.1-0.5l0.2-1.3l1.8-3.2l1.8-1.5l-0.2-4.5l1.4-1.4
			l1-0.3l0.2-3.2l1.3-2.6l1,0.5l0.2,0.5l0.7,0.2l1.7-0.9l-0.4-8l-2.8-7.2l-2-8l-2.1-2.8l-2.3-1.6l-1.4,1l-3.4,1.6l-1.7,4.4l-2.4,3.2
			l-1,0.5l-1.3-0.5c0,0-2.3-1.3-2.1-1.8s0.4-4.4,0.4-4.4l3-1.1l0.7-3l0.5-2.3l2.1-1.4l-0.3-8.8l-1.4-2l-1.1-0.7l-0.7-1.8l0.7-0.7
			l1.4,0.3l0.2-1.4l-2.3-1.9l-1.1-2.3h-2.3l-4-1.3l-4.8-3h-2.4l-0.5,0.5l-0.9-0.4l-2.7-2l-2.5,1.6l-2.5,2l0.3,3.2l0.9,0.3l1.8,0.4
			l0.4,0.7l-2.3,0.7l-2.3,0.3l-1.3,1.6l-0.3,1.8l0.3,1.4l0.3,4.8l-3.2,1.8l-0.5-0.2V164l1.1-2.1l0.5-2.1l-0.7-0.7l-1.7,0.7l-0.9,3.7
			l-2.4,1l-1.6,1.7l-0.2,0.9l0.5,0.7l-0.5,2.3l-2,0.4v1l0.7,2.1l-1,5.4l-1.4,3.5l0.5,4.1l0.4,1l-0.7,2.1l-0.3,0.7l-0.3,2.4l3.2,5.3
			l2.5,5.7l1.3,4.2l-0.7,4.1l-0.9,5.3l-2.1,4.6l-0.3,2.4l-2.8,2.7L574.7,226z M545.4,162.4l-1.1-1l-1.6-9.1l-3.2-1.1l-1.5-2
			l-11.1-2.5l-2.5-1l-7.1-1.9l-6.8-0.9l-3.4-4.7l0.6-0.4l2.4-0.7l3.2-2v-0.9l0.5-0.5l5.3-0.9l2.1-1.7l3.9-1.8l0.2-1.1l1.7-2.5
			l1.6-0.7l1.1-1.6l2-2l3.9-2.1l4.1-0.4l1,1l-0.3,0.9l-3.2,0.9l-1.3,2.7l-2,0.7l-0.4,2.1l-2.1,2.8l-0.3,2.3l0.7,0.4l0.9-1l3.2-2.5
			l1.1,1.1h2l2.8,0.9l1.3,1l1.3,2.7l2.4,2.4l3.4-0.2l1.3-0.9l1.4,1.1l1.4,0.4l1.1-0.7h1l1.4-0.9l3.5-3.2l3-1l5.8-0.3l4-1.7l2.3-1.1
			l1.3,0.2v5l0.4,0.3l2.5,0.7l1.7-0.4l5.4-1.4l1-1l1.3,0.4v6.1l2.8,2.7l1.1,0.5l1.1,0.9l-1.1,0.3l-0.7-0.3l-3.2-0.4l-1.8,0.5l-2-0.2
			l-2.8,1.3h-1.6l-5.1-1.1l-4.6,0.2l-1.7,2.3L564,146l-2.1,0.7l-1,2.7l-1.1,1l-0.4-0.2l-1.3-1.4l-4,2.1h-0.5l-1-1.4l-0.7,0.2
			l-1.7,3.9l-0.9,3.5l-2.8,6.1L545.4,162.4z M519.4,112.8l1.6-1.8l1.9-0.7l4.7-3.4l2-0.5l0.4,0.4l-4.5,4.5l-2.9,1.7l-1.8,0.8
			L519.4,112.8z M595.1,141l0.5,2.2l2.8,0.2l1.1-1.1c0,0-0.1-1.3-0.4-1.4c-0.3-0.2-1.4-1.7-1.4-1.7l-1.9,0.2l-1.4,0.2l-0.3,1
			L595.1,141z"/>
		<path id="MN_2_" class="st8" d="M416.7,99.3l-0.5,3.4v9l1.4,4.4l1.7,2.9l0.4,8.7l1.6,11.8l1.6,6.4l0.4,5.6v4.7l-1.4,1.6l-1.6,1.1
			v1.3l0.8,1.5l3.6,3.1l0.6,2.8v31.5l52.9-0.5l18.6-0.6l-0.4-5.3l-1.6-1.8l-6.3-4l-3.2-4.7l-3-0.8l-1.8-2.5h-2.8l-3.1-3.3l-0.4-6.1
			l0.1-3.4l1.3-2.6l-0.6-2.4l-2.5-2.7l1.9-5.4l4.7-3.5l1.1-1.2l-0.2-7l0.2-2.6l2.3-2.6l3.3-2.5l1.1-0.2l4-4.4l1.6-0.7l2-3.4l2.1-3.2
			l2.7-2.3l4.2-1.8l8.1-3.6l3.4-1.6l0.5-2l-3.9,0.4l-0.6,1h-0.5l-1.6-2.7l-7.8,0.3l-0.9,0.7h-0.9l-0.4-1.1l-0.7-1.6l-2.3,0.4
			l-2.8,2.8l-1.4,0.7h-2.7l-2.3-0.9v-1.8l-1.1-0.2l-0.4,0.4l-2.3-1.1l-0.4-2.5l-1.3,0.4l-0.4,0.9l-2.1-0.4l-4.7-2.1l-3.4-2.3h-2.5
			l-1.1-0.9l-2,0.5l-1,1l-0.3,1.1h-4.2v-1.8l-5.5-0.3l-0.3-1.3h-4.2l-1.4-1.4l-1.3-5.4l-0.7-4.8l-1.7-0.7l-2-0.4l-0.5,0.2l-0.3,7.2
			l-26.4,0L416.7,99.3z"/>
		<path id="MO_2_" class="st8" d="M529.5,338.1l0.4-5.2l3.7-3l1.7-0.9v-2.5l0.6-1.4l-1-1.4l-2.1,0.3l-1.8-2.2l-1.5-4l0.8-2.3
			l-1.8-2.8l-1.6-4l-4-0.6l-6-4.9l-1.9-3.7l0.7-2.9l1.9-5.3l0.5-2.6l-1.7-0.9l-6.1-0.5l-1-1.7V282l-4.7-3.1l-6.3-6.8l-2-6.4
			l-0.4-3.7l0.6-2.1l-2.3-2.7l-1.1-2.1l-6.8,0.7l-8.8,0.5l-42.8,1.1l1.1,2.3l-0.1,1.9l2,3.2l2.6,3.4l2.7,2.6l2.3,0.2l1.2,1v2.5
			l-1.6,1.4l-0.4,2l1.8,2.8l2.1,2.6l2.3,1.8l1.1,10.2l-0.7,35.1l0.4,5l20.8-0.2l20.5-0.6l28.5-1.1l1.9,3.2l-0.7,2.7l-2.7,2.2
			l-0.4,1.6l4.6,0.4l3.6-1L529.5,338.1z"/>
		<path id="MS_2_" class="st8" d="M539.4,455.6l2.3-3.7l1.6,0.7l6-1.7l1.8,0.3l1.3,0.7h4.6l0.4-1.4l-1.5-13l-2.5-16.7l0.9-39.6
			l-0.2-14.7l0.2-5.5l-4.2,0.3l-17.2,1.4l-11.4,0.4l-0.2,2.8l-2.5,1.1l-2.3,4.5l0.4,1.4l0.1,2.1l-2.5,1l-3.1,4.5l0.7,2l-2.6,2.2
			l-0.9,5l-0.5,1.7l1.4,2.2l-1.3,1.2l1.3,2.5l0.3,3.7l-1.1,2.2l-0.2,0.8l0.4,4.4l1.8,4l-0.1,1.5l2,1.8l-0.6,2.7l-0.8,0.3l0.5,1.7
			l-7.6,13.2l-0.7,7.2l0.4,1.3l21.2-0.6l7.2-0.6l1.7-0.3l0.5,1.2l-0.9,6.2l2.9,2.9l1.9,5.6L539.4,455.6z"/>
		<path id="MT_2_" class="st8" d="M325.8,102.8l-4.7,50.2l-1.1,13.3l-51.9-5.8l-43-6.2l-1.2,9.8l-1.7-1.5l-0.4-2.2l-1.1-1.7
			l-2.9,1.3l-0.6,2.2l-2,0.3l-3.3-1.4l-3.6,0.1l-2.1,0.6l-2.8-1.3l-2.6,0.2l-1.8,1.7l-0.8-0.5l-0.6-3l0.6-2.8l-2.4-2.8l-2.9-2.2
			l-2.2-11.1l-0.1-4.7l-1.4-0.7l-0.5,0.9l-4,2.8l-1.1-0.1l-2-2.5l-0.2-2.5l6.1-15.1l-0.5-2.3l-3.1-1l-0.4-0.8l-2.4-3.1l-4-9.1
			l-2.8-1.4l-1.6-3.7l1.1-4.1l-2.8-6.6l3.9-18.7l28.7,6l16.2,3l28.4,4.7l25.7,3.5l25.6,3.1l27,2.7L325.8,102.8z"/>
		<path id="NC_2_" class="st8" d="M699.5,354.8l-11.2-6.8l-2.7-0.7l-14.6,1.8l-1.4-2.6l-2.5-1.9l-14.7,0.4l-6.5,0.8l-8.1,4l-6,2.4
			l-5.7,1.1l-11.8,1.2l0.1-3.6l1.5-1.1l2.4-0.6l0.6-3.3l3.4-2.2l3.4-1.3l4-3.2l3.9-2l0.6-2.8l3.6-3.3l0.6,0.9l2.2,0.2l2.1-3.2
			l1.5-0.4l2.3,0.3l1.6-3.5l2.2-2.1l0.4-1.6l0.1-3.1l3.9,0.1l33.8-4.9l50.5-10.8l1.8,4.2l3.2,5.7l2.1,2.1l0.5,2l-2.1,0.2l0.7,0.5
			l-0.3,3.7l-2.3,1.1l-0.5,1.8l-1.1,2.5l-3.2,1.4l-2.1-0.3l-1.3-0.2l-1.4-1.1l0.3,1.1v0.9h1.7l0.7,1.1l-1.7,5.5h3.7l0.5,1.4l2-2
			l1.1-0.4l-1.7,3.2l-2.7,4.2h-1.1l-1-0.4l-2.4,0.5l-4.6,2.1l-5.7,4.7l-3,4.1l-1.7,5.7l-0.4,2.1l-4.1,0.4l-4.5,1.3L699.5,354.8z
			 M742.8,331.8l2.3-2.2l2.8-2.3l1.3-0.5l0.2-1.8l-0.5-5.4l-1.3-2L747,316l0.6-0.2l2.4,4.8l0.4,3.9l-0.2,3l-3,1.3l-2.5,2.1l-1,1.1
			L742.8,331.8z"/>
		<path id="ND_2_" class="st8" d="M422.3,151.7l-0.4-5.4l-1.6-6.4l-1.6-12l-0.4-8.5l-1.7-2.8l-1.4-4.7v-9.1l0.5-3.4l-1.6-4.9
			L389.1,94l-16.3-0.5l-23.3-1.1l-22.1-1.9l-0.8,12.7l-4.1,44.7l49.9,3.4l50,1.5V151.7z"/>
		<path id="NE_2_" class="st8" d="M421.7,220.1l-0.9-2l-0.4-1.4l-2.5-1.4l-4.2-1.3l-1.9-1.1l-2.3,0.1l-3.2,0.4l-3.7,1.1l-5.3-3.6
			l-1.9-1.8l-9.4,0.5l-36.4-2.1l-31.3-1.9l-3.8,38.4l29.1,2.9l-1.2,18.5l19.1,0.9l35.6,1.1l38.5,0.5h4l-1.9-2.6l-2.3-3.4l0.1-2
			l-1.2-2.4l-1.7-4.6l-0.4-5.9l-1.2-3.6l-0.4-4.4l-2-3.2l-0.9-4.1l-2.5-6.9l-0.9-4.7L421.7,220.1z"/>
		<path id="NH_2_" class="st8" d="M782.9,164.8l1-2.8l-2.4-1.1l-0.4-2.7l-3.6-1l-0.3-2.6l-10.3-32.9l-0.6,0.1l-0.5,1.4l-0.5-0.4
			l-0.9-0.9l-1.3,1.7l-0.2,2l0.4,7.4l1.7,2.5v3.8l-3.4,4.2l-2.1,0.8v0.6l1,1.7v7.6l-0.7,8.1l-0.2,4.1l0.9,1.2l-0.2,4.1l-0.4,1.3
			l0.9,1l4.5-1.1l12.1-3.1l1.5-2.5l3.5-1.7L782.9,164.8z"/>
		<path id="NJ_2_" class="st8" d="M732,241.1l0.1-1.3l2.4-1.1l1.5-2.5l1.5-2.1l2.9-2.8v-1.1l-5.4-3.6l-0.9-2.4l-2.4-0.3l-0.1-0.8
			l-0.6-1.9l1.9-1l0.2-2.5l-1.1-1.1l0.2-1.1l1.7-2.7v-2.7l2.2-2.7l4.9,2.2l5.6,1.7l2.2,1.1l0.1,1.6l-0.4,2.4l0.4,4l-1.8,1.7l-1,0.9
			l0.4,0.4l2.4-0.3l1-0.7l1.4,3l0.2,8.3l0.5,1l-1,4.8l-2.7,5.7l-2.4,3.5l-0.7,4.2l-1.8,2.1h-0.7l-0.3-2.4l0.7-0.9l-0.2-1.3l-3.5-0.5
			l-4.2-2l-2.8-2.5l-0.9-1.8L732,241.1z"/>
		<path id="NM_2_" class="st8" d="M246,417.7l-14.7-2.3l-1.1,8.4l-13.9-1.8l5.3-34.9l6.1-46.7l3.9-27.1l29.9,3.4l32.8,3.9l28.1,2.5
			l-0.3,9.5l-1.2-0.1l-6.5,85.8l-24.9-1.6l-33.5-3.2l0.6,5.5L246,417.7z"/>
		<path id="NV_2_" class="st8" d="M116.8,193.1l34,7.5l22.8,4.6l-9.3,46.6l-4.7,26.2l-2.9,13.6l-1.8,9.7l-2.3,14.4l-1.5,2.7
			l-1.4-0.1l-1.1-2.3l-2.5-0.4l-1.1-1l-1.6,0.1l-0.8,0.7l-1.6,1.1l-0.3,6.4l-0.3,1.3l-0.4,10.9l-1,1.6l-14.7-22.4l-37-54.5
			l-10.9-16.7l7.5-28.6l7-27.5L116.8,193.1z"/>
		<path id="NY_2_" class="st8" d="M749.3,216.3l0.4-2.4l-0.2-2.1l-2.6-1.3l-5.7-1.8l-5.3-2.3l-0.5-0.4l-2.4-0.3l-1.8-1.3l-1.8-5.2
			l-2.9-0.4l-2.1-2.1l-33.7,7.1l-27.7,5.3l-0.4-5.7l1.4-1.1l1.1-1l0.9-1.4l1.6-1l1.7-1.6l0.4-1.4l1.8-2.4l1-0.9l-0.2-0.9l-1.1-2.7
			l-1.6-0.2l-1.7-5.4l2.5-1.6l3.9-1.3l3.5-1.1l2.8-0.4l5.5-0.2l1.7,1.1l1.4,0.2l1.8-1.1l2.3-1l4.6-0.4l1.8-1.6l1.6-2.8l1.4-1.7h1.8
			l1.7-1l0.2-2l-1.3-1.8l-0.3-1.3l1-1.8v-1.3h-1.6l-1.6-0.7l-0.7-1l-0.2-2.3l5.1-4.8l0.5-0.7l1.3-2.5l2.5-4l2.4-3.2l1.8-2.1l2.1-1.6
			l2.7-1.1l4.8-1.1l2.8,0.2l4-1.3l6.5-1.9l0.6,4.3l2.1,5.7l0.7,4.4l-0.9,3.7l2.3,4l0.7,1.8l-0.8,2.8l3.2,1.5l2.4,9v5.1l-0.5,9.6
			l0.7,4.7l0.6,3.2l1.3,6.4v7.1l-1,2l1.8,2.4l0.4,0.8l-1.7,1.6l0.3,1.1l1.1-0.3l1.3-1.1l2-2.3l1-0.5l1.4,0.5l2,0.2l6.9-3.4l2.5-2.4
			l1.1-1.3l3.7,1.4l-3,3.2l-3.4,2.5l-6.2,4.7l-2.3,0.9L754,219l-3.5,1l-0.9-0.4L749.3,216.3z"/>
		<path id="OH_2_" class="st8" d="M591.6,226.1l1.5,13.6l4.2,36.1l3.4-0.2l2-0.7l3.2,1.6l1.5,3.7l4.7,0.1l1.6,1.8h1.5l2.1-1.2
			l2.7,0.4l1.3,1.1l1.6-1.8l2-1.2l2.1-0.4l0.5,2.4l1.4,0.9l2.3,1.8l0.7,0.2l1.8-0.1l1.1-0.5v-1.8l1.5-1.3l0.1-4.2l1-3.7l1.7-1.1
			l0.9,0.6l0.9,1l0.6,0.2l0.4-0.4l-0.8-2.4v-1.9l1-1.2l2.2-3.2l1.1-1.3l1.9,0.4l1.8-1.3l2.6-2.9l1.9-3.2l0.2-4.7l0.4-4.4v-4
			l-1.1-2.8l1.1-1.6l1.1-1.1l-0.5-2.5l-3.8-22.5l-5.4,3.2l-3.4,2l-3,3.2l-3.5,3.4l-2.8,0.7l-2.5,0.4l-4.8,2.3l-1.8,0.2l-3-2.7
			l-4.6,0.5l-2.3-1.3l-1.9-1.1L591.6,226.1z"/>
		<path id="OK_2_" class="st8" d="M370.4,334.7l-1.6,21.3l-0.8,15.8l0.2,1.4l3.5,3.2l1.5,0.8h0.8l0.8-1.8l1.3,1.7l1.4,0.1l0.3-0.2
			l0.2-1l2.5,1.2l-0.4,3.1l3.3,0.4l2.2,0.9l3.7,0.5l2,1.4l2.2-1.5l3.1,0.6l1.9,2.7l1.1,0.1v2l1.8,0.6l2.2-1.8l1.6,0.5l2.4,0.1l0.6,2
			l3.9,1.6l1.5-0.3l1.7-3.7h1.1l1,1.8l3.7,0.7l3,1.1l2.6,0.7l1.4-0.6l0.6-2.4h4l1.7,0.8l2.4-1.7h1.2l0.5,1.2h3.2l1.8-1.6l2,0.5
			l1.5,1.9l2.6,1.5l3,0.8l1.7,1.1l-0.3-33l-1.2-9.6l-0.1-7.6l-1.3-5.8l-0.5-6l0.1-3.8l-11.1,0.3l-40.7-0.4l-39.2-1.8l-36.4-1.6
			l-0.4,9.4L370.4,334.7z"/>
		<path id="OR_2_" class="st8" d="M68,180.2l24.8,6.3l24.2,5.7l14.9,3.2l7.7-30.8l1.1-3.9l2.1-4.8l-0.6-1.1l-2.2,0.1l-1.1-1.6
			l0.5-1.3l0.4-2.9l4.1-5l1.7-0.8l0.8-0.7l0.6-2.4l0.7-1l3.4-5l3.2-3.5l0.2-2.9l-3-2.2l-1.1-4l-11.5-3.4l-13.4-3l-13,0.3l-1-1.2
			l-4.5,1.6l-4-0.4l-2.1-1.4l-1.1,0.5l-4.1-0.3l-1.7-1.3l-4.2-1.6l-1-0.1l-3.9-1.1l-1.5,1.3l-5.5-0.2l-4.7-3.4l0.2-8.1l-1.8-3.1
			l-3.6-0.5l-0.6-2.2l-2.1-0.4l-5.1,1.8l-2,5.7l-2.8,8.8l-2.8,5.7l-4.4,12.4l-5.7,11.9l-7.1,11.1l-1.7,2.5l-0.7,7.6l-1.1,5.3
			l2.4,3.1L68,180.2z"/>
		<path id="PA_2_" class="st8" d="M655.5,209.5l1.1-0.4l5-4.8l0.6,6.1l29.4-5.7l32.4-6.8l2,2l2.7,0.4l1.8,4.9l2.1,1.7l2.5,0.4
			l0.1,0.1l-2.3,2.8v2.7l-1.7,2.7l-0.2,1.7l1.1,1.1l-0.2,1.7l-2.1,1l0.9,3l0.2,1l2.5,0.3l0.8,2.2l5.2,3.4v0.4l-2.7,2.6l-1.3,1.9
			l-1.5,2.5l-2.4,1.1l-1.2,0.3l-1.8,1.1l-1.4,1.2l-19.7,3.8l-34,6.8l-9.9,1.2l-3.4,0.6l-4.5-19.7l-3.8-22.7L655.5,209.5z"/>
		<path id="RI_2_" class="st8" d="M775.8,195l-0.7-3.9l-1.4-5.3l5-1.3l1.3,1.1l3,3.8l2.5,3.9l-2.5,1.2l-1.1-0.2l-1,1.6l-2.1,1.7
			l-2.5,1L775.8,195z"/>
		<path id="SC_2_" class="st8" d="M675.2,403.8l-1.8-0.9l-1.7-4.9l-2.2-2l-2.2-0.4l-1.3-4l-2.6-5.7l-3.7-1.6l-1.7-1.6l-1.1-2.3
			l-2.1-1.8l-2-1.1l-1.9-2.5l-2.8-2.1l-3.9-1.5l-0.4-1.2l-2-2.5l-0.4-1.3l-3.3-4.7l-3,0.1l-3.4-2.2l-1.1-1.1l-0.2-1.2l0.5-1.4
			l2.4-1.1l-0.7-1.8l5.6-2.4l8.1-4l6.2-0.8l14.4-0.4l2,1.7l1.6,3.1l4-0.7l11.1-1.3l2.4,0.7l11,6.5l8.9,7.3l-4.7,4.7l-2.3,5.4
			l-0.4,5.5l-1.4,0.7l-1,2.4l-2.1,0.5l-1.8,3.2l-2.4,2.4l-2,3l-1.4,0.7l-3.2,3l-2.5,0.2l0.9,2.8l-4.4,4.7l-2,1.4L675.2,403.8z"/>
		<path id="SD_2_" class="st8" d="M422.3,199.7l-0.8,2.8l0.4,2.6l2.3,1.8l-1.1,4.7l-1.6,3.6l1.3,2.9l0.6,1l-1.1,0.1l-0.6-1.4
			l-0.5-1.8l-2.9-1.6l-4.2-1.3l-2.2-1.1l-2.5,0.1l-3.4,0.4l-3.3,1.1l-4.7-3.3l-2.4-2.1l-9.6,0.7l-36.4-2.1l-31.3-1.9l1.3-21.8
			l2.5-29.9l0.4-4.4l50,3.4l50,1.5v2.4l-1.1,1.3l-1.8,1.3l-0.1,1.9l1,1.9l3.6,3l0.4,2.4v31.5L422.3,199.7z"/>
		<path id="TN_2_" class="st8" d="M597.8,356.4l-11.5,1.1l-20.5,1.9l-33,2.4l-10.4,0.4l0.8-0.5l0.8-4l-1.1-3.2l3.4-2l0.4-2.2
			l1.1-3.8l2.6-8.3l0.4-4.9l0.3-0.2l10.8-0.2l11.9-0.7l0.1-3.4l3.1-0.1l26.7-2.9l47.4-4.6l9-1.3l6.7-0.2l2.1-1.7l1.1,0.3l-0.1,2.9
			l-0.4,1.4l-2.1,1.9l-1.4,3.2l-1.8-0.4l-2.1,0.8l-1.9,2.9l-1.2-0.2l-0.7-1.1l-1,0.4l-3.8,3.5l-0.7,2.7l-3.7,1.9l-3.8,3.2l-3.3,1.3
			l-3.9,2.5l-0.5,3.2l-2.2,0.4l-1.8,1.5l-0.2,4.2L597.8,356.4z"/>
		<path id="TX_2_" class="st8" d="M257.1,414.4l32.5,3.2l25.7,1.7l6.5-85.8l47.8,2.1l-1.5,20.5l-0.9,15.8l0.2,1.8l3.9,3.6l1.8,1h1.6
			l0.4-1.1l0.6,0.8l2.1,0.2l1-0.5v-0.2l0.9,0.4l-0.4,3.2l4,0.6l2.1,0.8l3.7,0.6l2.3,1.6l2.5-1.7l2.4,0.5l1.9,2.7l0.7,0.1v1.8l2.9,1
			l2.2-1.8l1.3,0.4l1.8,0.1l0.5,1.8l4.6,1.8l2-0.4l1.7-3.5h0.1l1,1.7l4,0.8l3,1.1l2.8,0.9l2.1-1.1l0.6-2h3.2l1.8,0.9l2.6-1.8h0.4
			l0.4,1.2h4.1l1.7-1.6l1.1,0.4l1.5,1.8l2.9,1.7l3,0.9l2.2,1.2l2.4,1.8l2.7-1.1l1.8,0.7l0.6,17.6l0.6,8.3l0.5,3.6l2.3,3.9l0.8,4
			l3.7,5.2l0.3,2.7l0.5,0.7l-0.6,6.8l-2.5,4.2l1.1,2.3l-0.4,2.1l-0.7,6.3l-1.1,2.6l0.3,3.7l-4.9,1.4l-8.7,4l-0.9,1.7l-2.3,1.7
			l-1.8,1.3l-1.1,0.7l-5,4.7l-2.4,1.8l-4.7,2.8l-5,2.1l-5.5,3l-1.6,1.3l-5.1,3.2l-3,0.5l-3.4,4.8l-3.5,0.3l-0.9,1.7l2,1.7l-1.3,4.8
			l-1.1,4l-1,3.4l-0.7,4l0.7,2.1l1.6,6.1l0.9,5.4l1.6,2.4l-0.9,1.3l-2.7,1.7l-5-3.4l-4.8-1l-1.1,0.4l-2.8-0.5l-3.7-2.7l-4.6-1
			l-6.7-3l-1.8-3.4l-1.1-5.7l-2.8-1.7l-0.5-2l0.5-0.5l0.3-3l-1.1-0.5l-0.5-0.9l1.1-3.9l-1.4-2l-2.8-1.1l-3-3.9l-3.2-5.8l-3.7-2.3
			l0.2-1.7l-4.7-10.8l-0.7-3.7l-1.6-1.7l-0.2-1.3l-5.3-4.7l-2.3-2.7v-1l-2.3-1.8l-6-1l-6.5-0.5l-2.7-2l-4,1.6l-3.2,1.3l-2,2.8
			l-0.9,3.2l-3.9,5.4l-2.1,2.1l-2.3-0.9l-1.6-1l-1.7-0.5l-3.4-2v-0.5l-1.6-1.7l-4.6-1.8l-6.5-6.8l-2-4.1v-7.1l-2.8-5.7l-0.4-2.4
			l-1.4-0.9l-1-1.8l-4.4-1.8l-1.1-1.4l-6.2-6.9l-1.1-2.8l-4.1-2l-1.3-3.9l-2.3-2.5l-1.5-0.4L257.1,414.4z M410.2,538.8l-0.5-6.2
			l-2.4-6.3l-0.5-6.1l1.3-7.2l2.9-6.1l3.1-4.7l2.8-3.2l0.5,0.2l-4.2,5.8l-3.9,5.7l-1.8,5.8l-0.3,4.6l0.8,5.4l2.3,6.3l0.4,4.6
			l0.2,1.3L410.2,538.8z"/>
		<path id="UT_2_" class="st8" d="M209.3,309.3l21.6,3.2l1.7-12l6.1-44.3l2-19.3l-28.3-3.1l1.9-11.5l1.6-9.3l-30.5-5.4l-11-2.2
			l-9.3,46.4l-4.7,26.3l-2.9,13.5l-1.5,8.1L209.3,309.3z"/>
		<path id="VA_2_" class="st8" d="M741.7,273.5l-0.2,2.5l-2.5,3.3l-0.4,4l0.4,3l-1.6,4.4l-1.9,1.7l-1.3-4l0.4-4.7l1.4-3.7l0.6-2.9
			l-0.1-1.5L741.7,273.5z M688.7,312.7l-33.9,4.9l-4.2-0.1l-1.9-0.3l-2.2,1.7l-6.4,0.1l-9,1.4l-5.9,0.5l3.6-2.3l3.6-2v-1.8l5-6.4
			l3.6-3.2l1.9-2.2l3.2,3.8l3.3,0.8l2.4-0.9l1.8-1.3l2.1,1.1l4-1.1l1.5-3.9l2.1,0.6l2.8-2l1.4,0.4l2.5-2.8l0.2-2.4l-0.7-1.1l4.2-9.2
			l1.6-4.6l0.4-4.1l0.6-0.2l1,1.5l1.3,1.1l3.4-0.2l1.5-7.1l2.6-0.5l0.7-2.3l2.5-1.9l1-1.8l1.6-3.8l0.1-4l3.2,1.2l5.8,2.7l0.3-4.6
			l3,1.1l-0.5,2.5l7.6,2.7l1.2,1.6l-0.7,2.9l-1.1,1.1l-0.4,1.5l0.4,2.1l1.8,1.1l3.4,1.2l2.5,0.9l4.3,0.8l1.9,1.8l2.8,0.4l0.8,1.1
			l-0.4,4.1l1.2,1l-0.4,1.7l1.1,0.7l-0.2,1.2l-2.4-0.1l0.1,1.4l2,1.3l0.1,1.2l1.6,1.6l0.4,2.2l-2.3,1.2l1.4,1.3l5.1-1.5l3.2,5.4
			L688.7,312.7z"/>
		<path id="VT_2_" class="st8" d="M739.9,138.4l2.1,5.7l0.7,4.7l-0.9,3.4l2.2,3.9l0.8,2l-0.6,2.3l2.9,1.3l2.5,9.5v4.7l10.1-1.8
			l-0.9-1l0.5-1.7l0.2-3.8l-0.9-1.2l0.2-4.1l0.7-8.2v-7.5l-1-1.6v-1.4l2.5-1l3.1-3.9v-3.2l-1.7-2.4l-0.3-5.1l-22.9,6L739.9,138.4z"
			/>
		<path id="WA_2_" class="st8" d="M74.2,100.1l-2-3.8l-3.6-0.6l-0.4-2.1L66,93.1l-2.5-0.4l-1.6,0.9l-2-2.5l0.3-2.5l2.4-0.3l1.4-3.5
			l-2.3-1l0.2-3.2l3.9-0.5l-2.4-2.4L62,71.3l0.5-2.5v-6.9L60.9,59l2-8.3l1.8,0.4l2.1,2.5l2.4,2.3l2.8,1.7l4,1.8l2.7,0.5l2.5,1.3
			l3,0.9l2-0.2V60l1.1-1l1.8-1.1l0.3,1l0.3,1.6l-2,0.4l-0.3,1.8l1.6,1.3l1,2.1l0.5,1.7l1.3-0.2l0.2-1.1l-0.9-1.1l-0.4-2.8l0.7-1.6
			l-0.5-1.3v-2.3l1.6-3.2l-1-2.3l-2.1-4.2l0.3-0.7l1.2-0.7l3.9,1.3l8.5,2.4l7.6,1.7l17.6,5l20.2,5l13.2,3.1l-4.2,15.4l-4,18.3
			l-3,14.3l-0.4,8.1l0,0l-11.3-3.3l-13.4-3l-12.7,0.3l-1-1.3l-5,1.8l-3.4-0.4l-2.3-1.6l-1.5,0.6l-3.6-0.2l-1.5-1.2l-4.5-1.6l-1-0.1
			l-4.2-1.2L83,111l-5-0.2l-4-2.9L74.2,100.1z M82.6,51.5l1.8-0.2l0.4,1.2l1.3-1.4h2l0.7,1.3L87.5,54l0.5,0.7l-0.6,1.8l-1.2,0.4
			c0,0-0.8,0.1-0.8-0.2c0-0.3,1.3-2.3,1.3-2.3l-1.5-0.5L85,55.1l-0.6,0.5l-1.3-2L82.6,51.5z"/>
		<path id="WI_2_" class="st8" d="M484.1,137.2l2.5,0.4l2.5-0.5l6.5-2.8l2.5-1.7l1.8-0.7l1.7,1.3l-1,1l-1.7,2.7l-0.5,1.7l0.9,0.5
			l1.6-0.9l1-0.2l2.4,0.7l0.5,1l1,0.2l0.5-1l3.5,4.7l7.2,1.1l7.2,1.9l2.3,1l10.8,2.3l1.4,2l3.2,1.1l1.5,9l1.4,1.2l1.3,0.8l-1,2
			l-1.6,1.4l-1.8,4.1l-1.1,2.1l0.2,1.6l1.3,0.3l1-1.7l1.3-0.7l0.7-2l1.7-1.6l2.4-3.5l3.7-5.5l0.7-0.4l0.3,0.9l-0.2,2l-2.5,6l-2.4,5
			l-0.4,2.8l-0.5,2.3l0.7,1.1l-0.2,2.4l-1.7,2.1l-0.4,1.6l0.5,3.2l0.5,3l-1.3,2.3l-0.7,2.5l-0.9,2.7l1,2.1l0.5,5.4l1.4,4l-0.2,2.6
			l-14,1.6l-15.4,0.9h-11.2L506,215l-2.5-0.4l-2.3-1.1l-2-3.2l-0.3-3.2l1.8-2.5l-0.4-1.2l-1.8-1.9l-0.7-2.9l-0.5-6l-1.8-2.2l-6.1-4
			l-3.3-4.7l-3-0.9l-1.9-2.5h-2.8l-2.5-2.9l-0.4-5.7l0.1-3.3l1.3-2.7l-0.7-2.8l-2.2-2.5l1.6-4.7l4.6-3.3l1.4-1.7l-0.2-7.1l0.2-2.5
			l2.1-2.5L484.1,137.2z"/>
		<path id="WV_2_" class="st8" d="M675.1,264l5.1-5.3l2.3-0.7l1.4-1.3l1.3-1.9l1,0.3l2.7-0.2l4-3.2l1.3-0.4l1.1,0.9l2.3,1.1l2.6,2.6
			l-0.4,3.8l-4.7-2.3l-4.2-1.6l-0.1,5.2l-2.3,5l-2.5,2.1l-0.7,2l-2.6,0.4l-1.5,7.1l-2.5,0.2l-1-0.9l-1.1-1.8l-1.9,0.4l-0.4,4.5
			l-1.6,4.5l-4.4,9.7l0.8,1.2l-0.1,1.8l-1.9,2.2l-1.4-0.4l-2.7,2l-2.5-0.7l-1.6,4.3l-3.3,0.9l-2.2-1.1l-2.2,1.7l-2,0.6l-2.8-0.7
			l-3.3-4l-3.1-1.9l-2.2-2.2l-2.5-3.2l-0.4-2l-2.5-1.5l-0.5-1.1l-0.2-4.9l0.3,0.1l2.1-0.2l1.6-0.9v-1.9l1.5-1.3l0.1-4.6l0.8-3.2
			l1-0.6l0.4,0.3l0.9,1l1.5,0.4l1-1.1l-0.9-2.7v-1.4l2.7-4l1.1-1.1l1.8,0.4l2.3-1.6l2.7-3l2.1-3.6l0.2-4.9l0.4-4.2v-4.3l-1-2.6
			l0.8-1.1l0.7-0.6l3.8,16.9l3.8-0.7l9.8-1.1L675.1,264z"/>
		<path id="WY_2_" class="st8" d="M318.7,182.8l-1.3,22.3l-3.9,38.6l-2.4-0.3l-73.1-8l-24.5-2.6l1.8-10.5l6.1-36l3.3-21.2l1.1-9.8
			l42.3,6.1l51.9,5.7L318.7,182.8z"/>
		<g id="DC_2_" class="st5">
			<path id="DC1_2_" class="st9" d="M712.8,263.5l-1-1.4l-0.9-0.7l1-1.4l1.9,1.3L712.8,263.5z"/>
			<circle id="DC2_2_" class="st10" cx="712.3" cy="261.8" r="4.4"/>
		</g>
	</g>
	<circle class="st2" cx="413.2" cy="385.9" r="9.7"/>
	<circle class="st2" cx="355.1" cy="381" r="7.9"/>
	<g id="outlines_3_">
		<path id="AL_3_" class="st11" d="M536.1,408.2l0.4,0.1l0.9-1.9l1.1-3.1l1.6,0.4l2.2,4.3v0.7l-1.9,1.4l1.9,0.2l3.7-1.8l-0.2-5.4
			l-1.8-1.3l-1.4-1.4l0.3-2.9l7.5-1.1l18.3-2.1l4.8-0.4l4,0.1l-0.4-1.6l-1.1-0.6l-0.6-0.8l0.7-1.9l-0.3-3.7l-1.1-3.2l0.6-3.6
			l1.2-3.4l-0.1-1.2l-1.3-0.5l-0.4-2.6l-1.9-2.4l-1.4-4.6l-1-4.8l-1.3-3.6l-2.7-11.4l-2.5-5.6l-0.6-4l0.1-1.6l-6.4,0.6l-16.7,1.6
			l-8.7,0.6l-0.1,4.6l0.1,11.9l-0.5,22.1l-0.2,10.1l2,13.4l1.1,10.5L536.1,408.2z"/>
		<path id="AR_3_" class="st11" d="M506.7,322.4l-4.6-0.5l0.6-2.2l2.2-1.9l0.4-1.6l-1.3-2.1l-22.7,0.9l-16.6,0.5l-16.8,0.2l1.1,4.9
			l0.1,6.1l1,7.8l0.2,27.2l1.5,1.1l2.1-0.9l2.1,0.9l0.3,7.2l18-0.1l19.1-0.6l0.6-1.4l-0.2-2.7l-1.2-2.2l1.1-1l-1-1.6l0.5-1.7
			l0.8-4.2l1.9-1.6l-0.6-1.6l2.9-4l1.8-0.8l-0.1-1.2l-0.4-1.2l2.1-4.1l1.8-0.8l0.1-2.4l1.5-1l0.6-2.9l-1-2.9l3-1.7l0.2-1.5l0.9-3
			l0.6-2.2L506.7,322.4z"/>
		<path id="AZ_3_" class="st11" d="M184.4,353.5l-0.2,1.1l0.4,0.7l13.5,7.6l8.6,5.4l10.5,6.1l12,7.1l8.8,1.7l18.1,1.9l4.3-28.2
			l5-37.8l3.1-22.1l-17.5-2.6l-43.3-7.8l-0.1,0.8l-1.9,11.8l-1.5,2.7l-2-0.1l-0.9-1.9l-1.9-0.3l-0.9-0.8l-0.8,0.1l-1.5,1.2L196,305
			l-0.2,1.1l-0.4,8.9l-1.1,1.7l-0.3,2.4l2,3.6l0.8,3.9l0.5,0.8l0.8,0.6l-0.3,1.7l-1.2,0.9l-2.4,1.1l-1.1,1.3l-1.1,2.6l-0.4,3.5
			l-2.1,2.1l-1.4,0.6l-0.1,4.1l-0.4,1.1l0.4,0.6l2.8,0.3l-0.6,2.1l-1.2,1.7l-2.6,0.3L184.4,353.5z"/>
		<path id="CA_3_" class="st11" d="M175.5,350.8l-14-1.9l-7.1-1.1l-0.4-1.3v-6.7l-0.2-2.3l-1.9-3l-0.6-1.6l-2.8-3l-2.1-3.4l-1.9-0.1
			l-2.3-0.6l-0.2-0.7l1.1-0.4l-0.4-2.3l-1.1-1.5l-3.4-0.6l-2.8-1.5l-0.8-1.6l-1.9-3.4l-2.1-2.2h-2.1l-2.8-1.5l-3.2-1.3l-3-0.4
			l-1.7-1.9l0.4-1.4l1.3-5.1l0.6-1.4v-1.7l-1.1-0.7l-0.4-2.1l-1.1-1.9l-2.4-4.1l-0.9-2.2l-1.1-3.4l-1.1-3.8l-2.3-3.1l-0.4-2.1
			l0.6-2.8h0.8l1.5-1.1l0.8-2.6l-0.7-1.9l-1.9-0.4l-1.4-1.9l-1.5-2.6l-0.1-5.8l0.4-1.4l0.4-1.6l0.4-1.7l-4.1-4.5V244l0.2-0.4
			l0.2-2.3l-0.9-2.9l-1.6-3.4l-1.9-3.2l-1.3-2.8l0.7-2.6l0.4-4.1l1.3-2.2l0.2-4.6l-0.8-2.6l-1.1-3l-1.9-3l0.6-2.3l1.1-3l1.3-0.6
			l0.2-0.8l2.2-1.9l3.7-8.4l0.1-5.3l1.2-3.5l27.6,8.4l18.2,4.7l-5.7,22.3l-6.2,23.6l9,13.7l30.1,44.4l12.2,18.6l-0.3,2.2l2,3.7
			l0.8,3.8l0.7,1.1l0.5,0.4l-0.1,1l-1,0.7l-2.4,1.1l-1.4,1.5l-1.2,2.8l-0.4,3.4l-1.9,1.8l-1.6,0.8l-0.1,4.4l-0.4,1.4l0.7,1.2
			l2.1,0.2l-0.3,1.1l-1,1.4l-2.8,0.4L175.5,350.8z M122.9,316l0.9,1.1l-0.1,0.9l-2.3-0.1l-0.4-0.9l-0.4-1.1L122.9,316z M124.2,316
			l0.9-0.4l2.6,1.5l2.2,0.9l-0.6,0.4l-3.2-0.1l-1.1-1.1L124.2,316z M139,330.1l1.3,1.6l0.6,0.7l1.1,0.4l0.4-1.1l-0.7-1.3l-1.9-1.4
			l-0.8,0.1L139,330.1L139,330.1z M138,336.3l1.3,2.3l0.9,1.4L139,340l-0.9-0.9c0,0-0.5-1.1-0.5-1.4c0-0.3,0-1.6,0-1.6H138z"/>
		<path id="CO_3_" class="st11" d="M359.1,243.6l-25.7-2.5L277,235l-1.6,15.8l-5,35.9l-1.4,9.8l24.2,2.8l26.7,3.1l24.7,2.1l10.2,0.4
			L359.1,243.6z"/>
		<path id="CT_3_" class="st11" d="M695.4,211.8l2.6-2.3l1.4-1.5l0.6,0.4l1.9-1.1l3.7-0.8l5-2.5l-0.4-3l-0.6-3.1l-1.1-4.3l-3.1,0.8
			l-15.5,3.4l0.4,2.2l1.1,5.2v5.9l-0.6,1.5l1.2,1.6L695.4,211.8z"/>
		<path id="DE_3_" class="st11" d="M682.8,251.9l-0.7,0.4l-2.6-1.7l-1.3-3.4l-1.4-2.6l-1.6-0.7l-1.5-2.6l0.4-1.4l0.4-1.6l0.1-0.8
			l-0.4,0.1l-1.2,0.7l-1.4,1.2l-0.1,0.2l1,2.9l1.6,4l2.6,11.5l3.6-0.2l4.3-0.8L682.8,251.9z"/>
		<path id="FL_3_" class="st11" d="M622.8,393.1l-3.7-0.5l-0.5,0.6l1.1,3.1l-0.3,3.7l-2.9-0.7l-0.1-2h-2.9l-3.8,0.5l-23.1,1.4
			l-5.8-0.2l-1.2-1.2l-1.8-3h-4.2l-4.7,0.4l-25.2,3l-0.2,2l1.1,1.1l2.1,1.4l0.2,6l2.4-0.4l4.3-1.5l4.3-0.4l3.1-0.4l5.4,1.3l5.8,2.8
			l1.1,1.1l2.1,0.8l1.1,1.4l0.2,1.9l2.3-0.9h2.8l2.6-1.4l2.6-2.6l2.2,0.1l0.4-0.8l-0.6-0.7l0.1-1.4l2.9-0.6h1.9l2.1,1.1l3,1.1
			l1.7,2.6l1.9,0.7l0.8,2.4l2.4,1.1l1.1,1.9l1.4,0.4l3.7,0.9l0.9,2.2l2.1,2.6v6.8l-1.1,3.4l0.2,1.9l0.9,3.4l1.3,2.9l0.6-0.4l1.1-3.2
			l-1.9-0.7l-0.2-0.4l1.1-0.4l3.2,0.7l0.1,1.1L618,443l-1.5,1.7l2.6,2.6l1.9,2.2l2.1,3.8l2.1,2.8l1.5,3.6l1.3,0.2l1.1-1.5l1.3,0.8
			l1.9,2.9l0.4,2.6l2.2,3.1l0.6-0.9l2.8,0.2l2.6,1.6l2.4,3.7l0.6,2.4l0.2,2.1l0.8,0.7l0.9,0.4l1.7-0.7l1.1-1.1l2.8-0.1l2.2-1.1
			l1.9-2.3l-0.4-1.4l-0.2-1.7l0.4-1.4l-0.2-1.4l1.7-0.9l0.2-2.4l-0.4-1.3l-0.4-8.6l-0.9-5.4l-3.2-5.8l-2.6-4.1l-1.9-3.8l-2.1-2.1
			l-2.1-5.3l0.5-1l0.8-0.9l-1.1-2.1l-2.9-2.6l-3.4-3.9l-2.6-4.5l-3.8-6.7l-2.6-6.9l-1.6-5.2L622.8,393.1z M635.4,487.7l1.7-0.4
			l0.9-0.1l1.1-1.6l1.6-1.1l0.9,0.4l1.2,0.2l0.3,0.8l-2.5,0.9l-3,1.1l-1.6,0.9L635.4,487.7z M645,484.1l0.9,0.8l1.9-1.5l3.8-3
			l2.6-2.8l1.8-4.7l0.7-1.2l0.1-2.4l-0.5,0.4l-0.7,2l-1.1,3.3l-2.3,3.8l-3.1,3l-2.4,1.4L645,484.1z"/>
		<path id="GA_3_" class="st11" d="M622.8,392.4l-4-0.5l-1,1.1l1.1,3.4l-0.2,2.8l-1.6-0.4l-0.1-2.1h-3.7l-3.8,0.5l-23,1.4l-5.5-0.2
			l-1-0.9l-1.8-3.1l-0.6-2.4l-1.1-0.6l-0.4-0.4l0.6-1.6l-0.3-3.9l-1.1-3.2l0.6-3.5l1.2-3.4l-0.1-1.8l-1.4-0.5l-0.3-2.3l-2-2.5
			l-1.4-4.4l-1.1-5l-1.2-3.4l-2.7-11.4l-2.5-5.7l-0.6-3.8l0.1-1.6l2.4-0.2l9.7-1.1l13.3-1.4l4.5-0.8l0.4,1l-1.6,0.6l-0.6,1.6
			l0.3,1.4l1,1.1l3.1,1.9l2.3-0.1l2.3,3.4l0.4,1.1l1.6,2l0.4,1.2l3.4,1.3l2.1,1.6l1.6,2.1l1.6,0.9l1.4,1.3l1,1.9l1.5,1.4l2.9,1.3
			l1.9,4.3l1.2,3.6l2,0.5l1.5,1.4l1.4,4.1l2.1,1.1l1.2-0.6l0.3,0.9l-2.4,4.4l0.4,1.9l-1.1,3l-1.6,7.1l0.6,4.5L622.8,392.4z"/>
		<path id="IA_3_" class="st11" d="M485,206.6l1.5,1.5l0.2,0.5l-1.4,2.1l0.2,2.9l1.9,2.9l2.2,1.1l1.7,0.2l0.6,1.3l0.1,1.7l1.8,0.7
			l0.6,0.8l0.4,1.1l2.7,2.4l0.4,1.4l-0.5,2.1l-1.2,2.6l-0.4,1.7l-1.5,1.1l-1.1,0.4l-4.1,1.1l-1.1,3.4l0.6,1.3l1.2,1.1l-0.1,2.5
			l-1.4,1l-0.5,1.3v1.7l-1,0.3l-1.2,1l-0.4,1.2l0.3,1.2l-0.9,0.7l-1.6-1.9l-1-2l-5.9,0.6l-7.1,0.4l-35.1,0.9l-1.1-3.1l-0.3-4.8l-1-3
			l-0.5-3.7l-1.6-2.6l-0.7-3.3l-1.9-5.6l-0.8-4l-1-1.4l-0.9-2.1l1.2-2.7l0.9-4.3l-1.9-1.6l-0.2-1.7l0.5-1.7l1.3-0.2l43.6-0.4
			l15.1-0.5L485,206.6z"/>
		<path id="ID_3_" class="st11" d="M213,95.4l-3.4,12.4l-3.2,14.9l-2.4,11.6l-0.3,6.9l0.9,3.2l2.5,1.9l-0.1,2.8l-2.8,3.1l-3.2,4.7
			l-0.6,2.1l-0.9,0.8l-1.3,0.6l-3.1,3.8l-0.3,2.2l-0.3,0.8l0.4,0.7l1.9-0.1l0.8,1.6l-1.7,4.1l-0.9,3l-6.3,25.2l14.8,3.2l28.2,5.6
			l24.8,4.3l3.5-20.8l2.7-17.2l-1.9-1.7l-0.3-1.9l-0.6-0.8l-1.5,0.7l-0.5,1.9l-2.3,0.4l-2.8-1.1l-2.7,0.1l-1.8,0.5l-2.4-1.1
			l-1.7,0.1l-1.7,1.4l-1.4-0.8l-0.5-2.9l0.5-2.1l-1.8-2.1l-2.4-1.9l-1.9-9.3l-0.1-3.4l-0.2-0.1l-0.1,0.3l-3.6,2.5l-1.2-0.1l-2.1-2.4
			l-0.1-2.2l5-12.2l-0.3-1.4l-2.4-0.8l-0.4-0.8l-1.9-2.5l-3.3-7.3l-2.3-1.1l-1.4-3.5l0.9-3.3l-2.3-5.4l3.1-15.3L213,95.4z"/>
		<path id="IL_3_" class="st11" d="M529.1,228.5l-0.6-1.9l-0.9-2.6l-1.1-1.3l-1.1-1.9l-0.3-3.9l-11.3,1.3l-12.4,0.7h-8.8l0.1,1.5
			l1.6,0.6l0.8,1l0.3,1l2.8,2.4l0.5,1.7l-0.5,2.4l-1.2,2.6l-0.6,1.9l-1.7,1.4l-1.4,0.4l-3.7,0.9l-0.9,2.9l0.4,0.8l1.4,1.3l-0.1,3.1
			l-1.5,1.1l-0.4,0.9v2l-1.3,0.4l-1,0.9l-0.3,0.9l0.3,1.4l-1.1,0.9l-0.6,2l0.2,2.8l1.6,5l5,5.4l4.1,2.6v3.1l0.5,0.9l4.7,0.4l1.9,1
			l-0.5,2.5l-1.6,4.4l-0.6,2.1l1.4,2.6l4.6,3.8l3.4,0.6l1.6,3.6l1.4,2.4l-0.6,2l1.1,2.7l1.2,1.5l1.1-0.2l0.7-1.6l1.7-1.2l2-0.7
			l4.3,1.8l0.4-0.1v-0.8l-0.9-1.9l0.3-2l1.7-1.1l2.4-0.9l-0.4-0.9l-0.6-1.4l0.9-0.9l0.7-1.9v-2.9l0.3-3.5l1.8-2.1l1.3-2.7l1.8-2.9
			l-0.4-3.8l-1.3-2.3l-0.2-2.4l0.6-3.8l-0.5-5.1l-0.8-11.3l-1-10.9l-0.6-8.3L529.1,228.5z"/>
		<path id="IN_3_" class="st11" d="M532.1,229.8l1.1,0.7l0.8-0.2l1.5-1.4l1.8-1.3l10.2-0.8l13.1-1.3l1.1,11l3.5,30.4l-0.4,2.1
			l0.9,1.1l0.1,0.9l-1.6,1.1l-2.6,1.2l-2.3,0.3l-0.4,3.4l-3.4,2.6l-2.1,2.9l0.1,1.7l-0.4,1h-2.5l-1-1.2l-3.7,2.1l0.1,2.2l-0.6,0.1
			l-0.4-0.6l-1.7-1.2l-2.6,1.1l-1,2.1l-0.9-0.4l-1.1-1.3l-3.1,0.4l-4.1,0.7l-1.8,0.9v-1.9l0.3-3.4l1.6-2.1l1.3-2.8l1.9-3l-0.4-4.1
			l-1.3-2.2l-0.2-2.3l0.6-3.8l-0.5-5.1l-0.6-9l-1.8-21.5L532.1,229.8z"/>
		<path id="KS_3_" class="st11" d="M434.4,260.7l-31.2-0.4l-28.9-0.9l-15.5-0.6l-3.1,46.2l17.3,0.7l31.9,1.5l33,0.4l9-0.2l0.5-24.9
			l-0.9-7.9l-1.8-1.4L443,271l-1.6-2.6l0.4-2.1l1.2-1v-1.5l-0.6-0.5l-1.9-0.1l-2.5-2.4L434.4,260.7z"/>
		<path id="KY_3_" class="st11" d="M520.9,312.3l9-0.5l0.1-2.9h3.1l21.7-2.3l32.1-3.1l4-2.6l2.8-1.5l0.1-1.4l4.3-5.6l2.9-2.6
			l1.5-1.7l-2.4-1.4l-1.8-1.9l-2.1-2.7l-0.4-1.6l-1.9-1l-0.6-1.4l-0.1-4.3l-1.9-1.4l-1.4-0.8l-0.4-1.6l-0.9,0.1l-1.4,0.9l-1.8,1.9
			l-1.4-1.2l-1.8-0.4l-1.7,1h-1.6l-1.3-1.4l-4-0.1l-1.3-3.2l-2.1-1.1l-1.5,0.6l-3,0.1l-0.4,1.5l0.9,1.1l0.2,1.5l-2,1.4l-2.7,1.3
			l-1.9,0.3l-0.4,3.2l-3.5,2.6l-1.9,2.6l0.1,1.6l-0.6,1.6l-3.2-0.1l-0.9-0.9l-2.8,1.6l0.1,2.4l-1.7,0.4l-0.6-1l-1.2-0.9l-1.9,0.8
			l-1.3,2.5l-1.6-0.7l-1-1.1l-2.6,0.3l-4,0.7l-2,0.9l-0.9,2.4l-0.7,0.7l1.1,2.6l-3,1l-1.4,1l-0.3,1.6l0.9,1.7v1.6l-1.1,0.3l-4.3-1.8
			l-1.6,0.6l-1.4,1l-0.6,1.3l1.2,1.7l-0.6,1.3l-0.1,2.4l-1.7,0.9l-1.5,1.2L520.9,312.3z"/>
		<path id="LA_3_" class="st11" d="M463.6,422.1l5.8-0.2l7.3,2.6l4.6,0.8l2.6-1.1l2.3,0.8l2.3,0.7l0.6-1.5l-2.3-0.8l-1.9,0.4
			l-1.9-1.1l0.6-1.1l2.2-0.7l1.3,1.1l1.3-0.7l2.3,0.4l1.1,1.7l0.2,1.6l3.2,0.2l1.3,1.3l-0.6,1.1l-0.9,0.6l1.1,1.1l6,2.6l2.6-0.9
			l0.7-1.7l1.9-0.4l1.3-1.1l0.9,0.7l0.6,2.1l-1.6,0.6l0.4,0.4l2.4-0.9l1.6-2.4l0.6-0.4l-1.5-0.2l0.6-1.1l-0.1-1.1l1.5-0.4l0.8-0.9
			l0.4,0.6l0.4,2.2l3,0.4l2.9,1.4l0.7,1.1h2.1l0.8,0.7l1.6-2.2v-1.1h-0.9l-2.4-1.9l-4.1-0.6l-2.3-1.6l0.8-1.9l1.6,0.2l0.1-0.4
			l-1.3-0.7v-0.4h2.3l1.3-2.2l-0.9-1.4l-0.2-1.9l-1.1,0.1l-1.4,1.5l-0.4,1.9l-2.2-0.4l-0.7-1.3l1.3-1.4l1.4-1.2l-1.6-4.6l-2.4-2.4
			l0.7-5.2l-0.1-0.4l-0.9,0.1l-23.6,1l-0.6-1.7l0.6-6.1l6.1-10.5l-0.6-1.9l1-0.3l0.3-1.4l-1.6-1.4l0.1-1.4l-1.4-3.2l-0.3-3.6
			l0.1-0.5l-18.8,0.6l-18,0.1l0.3,6.9l0.5,6.8l0.4,2.6l1.9,3.2l0.6,3.1l3.1,4.3l0.2,2.2l0.4,0.6l-0.5,5.9l-2,3.3l0.9,1.7l-0.4,1.9
			l-0.6,5.2l-0.9,2.1l0.1,2.6L463.6,422.1z"/>
		<path id="MA_3_" class="st11" d="M720.7,198.7l-0.4-1.6l0.6-1.1l2.1-1.1l0.6,2.2l-0.4,1.3l-1.7,1.1v0.7l1.4-1.1l2.8-3.2l2.8-1.4
			l3-1.1l-0.2-1.7l-0.7-2.1l-1.4-1.7l-1.3-0.6l-1.5,0.1l-0.4,0.4l0.7,0.9l1.1-0.6l1.5,1.1l0.6,1.9l-1.3,1.3l-1.6,0.7l-2.6-0.4
			l-2.8-4.3l-1.6-1.9h-1.3l-0.8,0.6l-1.4-1.9l0.2-1.1l1.7-3.7l-2.1-3.1l-2.6,1.3l-1.3,2.1l-13,3.4l-9.8,1.8l-0.4,7.6l0.5,3.5
			l15.7-3.4l8-2l1.4,1.1l2.4,3.1l2.1,3.4L720.7,198.7z M729.6,199.7l1.6-0.5l0.4-1.2l0.7,0.1l0.7,1.6l-0.9,0.4l-2.8,0.1L729.6,199.7
			z M722.9,200.3l1.6-1.9h1.1l1.3,1.1l-1.7,0.7l-1.6,0.7L722.9,200.3z"/>
		<path id="MD_3_" class="st11" d="M683.1,264l1.2-2.7l0.4-3.4l-4.5,0.8l-4.1,0.2l-2.7-12l-1.6-3.9l-1.1-3.3l-15.8,3.1l-26.8,5.4
			l1.4,7.4l3.4-3.5l1.8-0.5l1-1.1l1.3-1.9l1.1,0.5l1.9-0.1l1.9-1.5l1.4-1.1l1.5-0.4l1.1,0.8l1.9,1l1.4,1.3l0.9,1l3.4,1.1l-0.4,2.1
			l4.1,1.5l1.5-1.9l2.6,1.8l-1.5,2.4l-0.5,2.4l-1.3,1.9v1.5l0.2,0.6l1.4,0.9l2.4,0.8l3.1-0.1l2.2,0.7l1.5,0.2l0.7-1.5l-1.1-1.5v-1.3
			l-1.7-1.5l-1.5-3.9l0.9-3.8l-0.1-1.5l-0.9-0.9c0,0,1.1-1.1,1.1-1.6c0-0.4,0.4-1.5,0.4-1.5l1.4-0.9l1.4-1.1l0.4,0.7l-1.1,1.1
			l-0.9,2.6l0.2,0.8l1.3,0.2l0.4,3.9l-1.5,0.7l0.2,2.6l0.4-0.1l0.8-1.4l1.1,1.3l-1.1,0.9l-0.2,2.4l1.9,2.4l2.8,0.4l1.1-0.6l2.3,3
			l0.7,0.3L683.1,264z M672.8,264.1l0.8,1.8l0.1,1.3l0.8,1.4c0,0,0.6-0.6,0.6-0.9c0-0.2-0.5-2.2-0.5-2.2l-0.5-1.6L672.8,264.1z"/>
		<path id="ME_3_" class="st11" d="M705.2,141.3l1.1,0.3v-1.9l0.6-3.9l1.9-3.4l1.1-2.9l-1.4-1.7v-4.3l0.6-0.7l0.6-1.9l-0.1-1.1
			l-0.1-3.4l1.3-3.4l2.1-6.3l1.5-3h0.9l0.9,0.1v0.8l0.9,1.6l1.9,0.4l0.6-0.6v-0.7l2.9-2.1l1.3-1.3l1.1,0.1l4.3,1.7l1.4,0.7l6.5,21.3
			h4.3l0.6,1.4l0.1,3.4l2.1,1.6h0.6l0.1-0.4l-0.4-0.8l2-0.4l1.4,1.5l1.6,2.6v1.4l-1.5,3.4l-1.4,0.4l-2.4,2.2l-3.4,3.9
			c0,0-0.4,0-0.9,0c-0.4,0-0.7-1.5-0.7-1.5l-1.3,0.1l-0.7,1.1l-1.7,1.1l-0.7,1.1l1.1,1.1l-0.4,0.4l-0.4,1.9l-1.4-0.1v-1.1l-0.2-0.9
			l-1.1,0.2l-1.3-2.3l-1.5,0.9l0.9,1.1l0.2,0.8l-0.6,0.9l0.2,2.2l0.1,1.1l-1.1,1.9l-2.1,0.4l-0.2,2.1l-3.8,2.2l-0.9,0.4l-1.1-1.1
			l-2.2,2.6l0.7,2.3l-1.1,0.9l-0.1,3.1l-0.8,4.5l-1.6-0.6l-0.4-2.2l-2.9-0.8l-0.1-1.8l-8.3-26.7L705.2,141.3z M731.2,152.4l1.1-1.1
			l1,0.8l0.4,1.7l-1.2,0.6L731.2,152.4z M736,148.2l1.3,1.4c0,0,0.9,0.1,0.9-0.1c0-0.2,0.1-1.4,0.1-1.4l0.6-0.6l-0.6-1.3l-1.4,0.5
			L736,148.2z"/>
		<path id="MI_3_" class="st11" d="M547.5,226.1l13.6-1.4l0.1,0.8l7.1-1.1l8.6-1.2l0.1-0.4l0.1-1.1l1.5-2.6l1.4-1.2l-0.1-3.6
			l1.1-1.1l0.8-0.2l0.1-2.6l1.1-2.1l0.8,0.4l0.1,0.4l0.6,0.1l1.4-0.7l-0.3-6.5l-2.3-5.8l-1.6-6.5l-1.7-2.3l-1.9-1.3l-1.1,0.8
			l-2.8,1.3l-1.4,3.6l-1.9,2.6l-0.8,0.4l-1.1-0.4c0,0-1.9-1.1-1.7-1.5c0.1-0.4,0.4-3.6,0.4-3.6l2.4-0.9l0.6-2.4l0.4-1.9l1.7-1.1
			l-0.2-7.1l-1.1-1.6l-0.9-0.6l-0.6-1.5l0.6-0.6l1.1,0.2l0.1-1.1l-1.9-1.6l-0.9-1.9h-1.9l-3.2-1.1l-3.9-2.4h-1.9l-0.4,0.4l-0.7-0.4
			l-2.2-1.6l-2.1,1.3l-2.1,1.6l0.2,2.6l0.7,0.2l1.5,0.4l0.4,0.6l-1.9,0.6l-1.9,0.2l-1.1,1.3l-0.2,1.5l0.2,1.1l0.2,3.9l-2.6,1.5
			l-0.4-0.1v-3l0.9-1.7l0.4-1.7l-0.6-0.6l-1.4,0.6l-0.7,3l-1.9,0.8l-1.3,1.4l-0.1,0.7l0.4,0.6l-0.4,1.9l-1.6,0.4v0.8l0.6,1.7
			l-0.8,4.3l-1.1,2.9l0.4,3.4l0.4,0.8l-0.6,1.7l-0.2,0.6l-0.2,1.9l2.6,4.3l2.1,4.6l1.1,3.4l-0.6,3.4l-0.7,4.3l-1.7,3.7l-0.2,1.9
			l-2.3,2.2L547.5,226.1z M523.7,174.5l-0.9-0.8l-1.3-7.4l-2.6-0.9l-1.2-1.6l-9-2l-2-0.8l-5.8-1.6l-5.6-0.7l-2.8-3.8l0.5-0.4
			l1.9-0.6l2.6-1.6v-0.7l0.4-0.4l4.3-0.7l1.7-1.4l3.1-1.5l0.1-0.9l1.4-2.1l1.3-0.6l0.9-1.3l1.6-1.6l3.1-1.7l3.4-0.4l0.8,0.8
			l-0.2,0.7l-2.6,0.7l-1.1,2.2l-1.6,0.6l-0.4,1.7l-1.7,2.3l-0.2,1.9l0.6,0.4l0.7-0.8l2.6-2.1l0.9,0.9h1.6l2.3,0.7l1.1,0.8l1.1,2.2
			l1.9,1.9l2.8-0.1l1.1-0.7l1.1,0.9l1.1,0.4l0.9-0.6h0.8l1.1-0.7l2.9-2.6l2.4-0.8l4.7-0.2l3.2-1.4l1.9-0.9l1.1,0.1v4.1l0.4,0.2
			l2.1,0.6l1.4-0.4l4.3-1.1l0.8-0.8l1.1,0.4v5l2.3,2.2l0.9,0.4l0.9,0.7l-0.9,0.2l-0.6-0.2l-2.6-0.4l-1.5,0.4l-1.6-0.1l-2.3,1.1H553
			l-4.1-0.9l-3.7,0.1l-1.4,1.9l-5,0.4l-1.7,0.6l-0.8,2.2l-0.9,0.8l-0.4-0.1l-1.1-1.1l-3.2,1.7h-0.4l-0.8-1.1l-0.6,0.1l-1.4,3.1
			l-0.7,2.9l-2.3,4.9L523.7,174.5z M502.6,134.3l1.3-1.5l1.6-0.6l3.8-2.8l1.6-0.4l0.4,0.4l-3.6,3.6l-2.4,1.4l-1.5,0.6L502.6,134.3z
			 M564.1,157.1l0.4,1.8l2.3,0.1l0.9-0.9c0,0-0.1-1.1-0.3-1.1c-0.2-0.1-1.1-1.4-1.1-1.4l-1.6,0.1l-1.1,0.1l-0.2,0.8L564.1,157.1z"/>
		<path id="MN_3_" class="st11" d="M419.2,123.4l-0.4,2.8v7.3l1.1,3.6l1.4,2.4l0.4,7.1l1.3,9.6l1.3,5.2l0.3,4.6v3.8l-1.1,1.3
			l-1.3,0.9v1.1l0.6,1.2l2.9,2.5l0.5,2.3v25.6l43-0.4l15.1-0.5l-0.4-4.3l-1.3-1.5l-5.1-3.3l-2.6-3.8l-2.4-0.6l-1.4-2h-2.3l-2.5-2.7
			l-0.4-5l0.1-2.8l1.1-2.1l-0.5-1.9l-2-2.2l1.6-4.3l3.8-2.9l0.9-1l-0.1-5.7l0.1-2.1l1.9-2.1l2.7-2.1l0.9-0.1l3.2-3.6l1.3-0.6
			l1.6-2.8l1.7-2.6l2.2-1.9l3.4-1.4l6.6-2.9l2.8-1.3l0.4-1.6l-3.1,0.3l-0.5,0.8h-0.4l-1.3-2.2l-6.3,0.2l-0.7,0.6h-0.7l-0.4-0.9
			l-0.6-1.3l-1.9,0.4l-2.3,2.3l-1.1,0.6H478l-1.9-0.7v-1.5l-0.9-0.1l-0.4,0.4l-1.9-0.9l-0.4-2.1l-1.1,0.4l-0.4,0.7l-1.7-0.4
			l-3.8-1.7l-2.8-1.9h-2.1l-0.9-0.7l-1.6,0.4l-0.8,0.8l-0.2,0.9h-3.4v-1.5l-4.5-0.2l-0.2-1.1h-3.4l-1.1-1.1l-1.1-4.3l-0.6-3.9
			l-1.4-0.6l-1.6-0.4l-0.4,0.1l-0.2,5.8l-21.5,0L419.2,123.4z"/>
		<path id="MO_3_" class="st11" d="M510.8,317.2l0.4-4.2l3-2.4l1.4-0.7v-2.1l0.5-1.1l-0.8-1.1l-1.7,0.2l-1.5-1.8l-1.2-3.2l0.6-1.9
			l-1.4-2.3l-1.3-3.3l-3.3-0.5l-4.8-4l-1.6-3l0.6-2.4l1.6-4.3l0.4-2.1l-1.4-0.7l-4.9-0.4l-0.8-1.4v-2.9l-3.8-2.5l-5.1-5.6l-1.6-5.2
			l-0.4-3l0.5-1.7l-1.9-2.2l-0.9-1.7l-5.5,0.6l-7.1,0.4l-34.8,0.9l0.9,1.9l-0.1,1.6l1.6,2.6l2.1,2.8l2.2,2.1l1.9,0.1l1,0.8v2.1
			l-1.3,1.1l-0.4,1.6l1.5,2.3l1.7,2.1l1.9,1.5l0.9,8.3l-0.6,28.5l0.4,4.1l16.9-0.1l16.6-0.5l23.2-0.9l1.6,2.6l-0.6,2.2l-2.2,1.8
			l-0.4,1.3l3.7,0.4l2.9-0.8L510.8,317.2z"/>
		<path id="MS_3_" class="st11" d="M518.8,412.5l1.9-3l1.3,0.6l4.8-1.4l1.5,0.2l1.1,0.6h3.7l0.3-1.1l-1.2-10.5l-2-13.5l0.7-32.1
			l-0.1-11.9l0.1-4.5l-3.4,0.2l-14,1.1l-9.3,0.3l-0.1,2.3l-2,0.9l-1.9,3.6l0.4,1.1l0.1,1.7l-2.1,0.8l-2.5,3.6l0.6,1.6l-2.1,1.8
			l-0.7,4.1l-0.4,1.4l1.1,1.8l-1.1,1l1.1,2l0.2,3l-0.9,1.8l-0.1,0.6l0.3,3.6l1.4,3.2l-0.1,1.2l1.6,1.4l-0.5,2.2l-0.6,0.2l0.4,1.4
			l-6.1,10.7l-0.6,5.8l0.4,1.1l17.2-0.5l5.8-0.5l1.4-0.2l0.4,1l-0.7,5.1l2.4,2.4l1.6,4.6L518.8,412.5z"/>
		<path id="MT_3_" class="st11" d="M345.5,126.2l-3.8,40.7l-0.9,10.8l-42.1-4.7l-34.9-5.1l-1,8l-1.4-1.2l-0.3-1.8l-0.9-1.4l-2.4,1.1
			l-0.5,1.8l-1.6,0.2l-2.7-1.1l-2.9,0.1l-1.7,0.5L246,173l-2.1,0.1l-1.5,1.4l-0.6-0.4l-0.5-2.4l0.5-2.3l-1.9-2.3l-2.4-1.8l-1.8-9
			l-0.1-3.8l-1.1-0.6l-0.4,0.7l-3.2,2.3l-0.9-0.1l-1.6-2l-0.1-2l5-12.2l-0.4-1.9l-2.5-0.8l-0.3-0.6l-1.9-2.5l-3.3-7.4l-2.3-1.1
			l-1.3-3l0.9-3.3l-2.3-5.4l3.1-15.2l23.3,4.9l13.1,2.4l23,3.8l20.9,2.9l20.8,2.5l22,2.2L345.5,126.2z"/>
		<path id="NC_3_" class="st11" d="M648.8,330.7l-9.1-5.5l-2.2-0.6l-11.8,1.5l-1.1-2.1l-2-1.6l-11.9,0.4l-5.3,0.6l-6.6,3.2l-4.8,1.9
			l-4.6,0.9l-9.6,1l0.1-2.9l1.2-0.9l1.9-0.5l0.5-2.7l2.8-1.8l2.8-1.1l3.2-2.6l3.1-1.6l0.5-2.3l2.9-2.7l0.5,0.7l1.8,0.1l1.7-2.6
			l1.2-0.3l1.9,0.2l1.3-2.9l1.8-1.7l0.4-1.3l0.1-2.5l3.1,0.1l27.4-4l41-8.8l1.4,3.4l2.6,4.6l1.7,1.7l0.4,1.6l-1.7,0.1l0.6,0.4
			l-0.2,3l-1.9,0.9l-0.4,1.5l-0.9,2.1l-2.6,1.1l-1.7-0.2l-1.1-0.1l-1.1-0.9l0.2,0.9v0.7h1.4l0.6,0.9l-1.4,4.5h3l0.4,1.1l1.6-1.6
			l0.9-0.4l-1.4,2.6l-2.2,3.4h-0.9l-0.8-0.4l-1.9,0.4l-3.7,1.7l-4.6,3.8l-2.4,3.4l-1.4,4.6l-0.4,1.7l-3.4,0.4l-3.6,1.1L648.8,330.7z
			"/>
		<path id="ND_3_" class="st11" d="M423.8,165.8l-0.3-4.4l-1.3-5.2l-1.3-9.7l-0.4-6.9l-1.4-2.3l-1.1-3.8v-7.4l0.4-2.7l-1.3-3.9
			l-20.4-0.4l-13.3-0.4l-18.9-0.9l-18-1.5l-0.6,10.3l-3.4,36.3l40.5,2.8l40.6,1.2V165.8z"/>
		<path id="NE_3_" class="st11" d="M423.3,221.4l-0.7-1.6l-0.4-1.1l-2.1-1.1l-3.4-1.1l-1.6-0.9l-1.9,0.1l-2.6,0.3l-3,0.9l-4.3-2.9
			l-1.6-1.4l-7.6,0.4l-29.6-1.7l-25.4-1.6l-3.1,31.1l23.6,2.4l-1,15l15.5,0.7l28.9,0.9l31.2,0.4h3.2l-1.6-2.1l-1.9-2.8l0.1-1.6
			l-1-1.9l-1.4-3.7l-0.3-4.8l-1-2.9l-0.4-3.6l-1.6-2.6l-0.7-3.4l-2-5.6l-0.7-3.8L423.3,221.4z"/>
		<path id="NH_3_" class="st11" d="M716.5,176.5l0.8-2.3l-1.9-0.9l-0.4-2.2l-2.9-0.8l-0.2-2.1l-8.3-26.7l-0.5,0.1l-0.4,1.1l-0.4-0.4
			l-0.7-0.7l-1.1,1.4l-0.1,1.6l0.4,6l1.4,2v3.1l-2.8,3.4l-1.7,0.6v0.5l0.8,1.4v6.1l-0.6,6.6l-0.1,3.4l0.7,1l-0.1,3.4l-0.4,1.1
			l0.7,0.8l3.6-0.9l9.8-2.5l1.2-2.1l2.9-1.4L716.5,176.5z"/>
		<path id="NJ_3_" class="st11" d="M675.2,238.5l0.1-1.1l1.9-0.9l1.2-2l1.2-1.7l2.4-2.3v-0.9l-4.3-2.9l-0.7-1.9l-1.9-0.2l-0.1-0.6
			l-0.5-1.6l1.6-0.8l0.1-2.1l-0.9-0.9l0.1-0.9l1.4-2.2v-2.2l1.8-2.2l4,1.8l4.6,1.4l1.8,0.9l0.1,1.3l-0.4,1.9l0.3,3.2l-1.5,1.4
			l-0.8,0.7l0.4,0.4l1.9-0.2l0.8-0.6l1.1,2.4l0.1,6.7l0.4,0.8l-0.8,3.9l-2.2,4.6l-1.9,2.9l-0.6,3.4l-1.5,1.7h-0.6l-0.2-1.9l0.6-0.7
			l-0.1-1.1l-2.9-0.4l-3.4-1.6l-2.3-2.1l-0.7-1.4L675.2,238.5z"/>
		<path id="NM_3_" class="st11" d="M280.7,381.8l-11.9-1.9l-0.9,6.8l-11.3-1.4l4.3-28.3l5-37.9l3.1-22l24.2,2.8l26.7,3.1l22.8,2
			l-0.2,7.7l-1-0.1l-5.3,69.6L316,381l-27.2-2.6l0.5,4.5L280.7,381.8z"/>
		<path id="NV_3_" class="st11" d="M175.8,199.5l27.6,6.1l18.5,3.7l-7.6,37.8l-3.8,21.2l-2.4,11l-1.5,7.9l-1.9,11.7l-1.2,2.2
			l-1.1-0.1l-0.9-1.9l-2-0.4l-0.9-0.8l-1.3,0.1l-0.6,0.6l-1.3,0.9l-0.2,5.2l-0.2,1.1l-0.4,8.8l-0.8,1.3L182,297.9l-30-44.3
			l-8.9-13.5l6.1-23.2l5.7-22.3L175.8,199.5z"/>
		<path id="NY_3_" class="st11" d="M689.2,218.3l0.4-1.9l-0.1-1.7l-2.1-1.1l-4.6-1.4l-4.3-1.9L678,210l-1.9-0.2l-1.4-1.1l-1.5-4.2
			l-2.4-0.4l-1.7-1.7l-27.4,5.8l-22.5,4.3l-0.4-4.6l1.1-0.9l0.9-0.8l0.7-1.1l1.3-0.8l1.4-1.3l0.4-1.1l1.5-1.9l0.8-0.7l-0.1-0.7
			l-0.9-2.2l-1.3-0.1l-1.4-4.3l2.1-1.3l3.1-1.1l2.9-0.9l2.3-0.4l4.5-0.1l1.4,0.9l1.1,0.1l1.5-0.9l1.9-0.8l3.7-0.4l1.5-1.3l1.3-2.3
			l1.1-1.4h1.5l1.4-0.8l0.1-1.6l-1.1-1.5l-0.2-1.1l0.8-1.5v-1.1h-1.3l-1.3-0.6l-0.6-0.8l-0.1-1.9l4.1-3.9l0.4-0.6l1.1-2.1l2.1-3.2
			l1.9-2.6l1.5-1.7l1.7-1.3l2.2-0.9l3.9-0.9l2.3,0.1l3.2-1.1l5.3-1.6l0.5,3.5l1.7,4.6l0.6,3.6l-0.7,3l1.9,3.2l0.6,1.4l-0.6,2.3
			l2.6,1.2l1.9,7.3v4.1l-0.4,7.8l0.6,3.8l0.5,2.6l1.1,5.2v5.8l-0.8,1.6l1.5,1.9l0.4,0.6l-1.4,1.3l0.2,0.9l0.9-0.2l1.1-0.9l1.6-1.9
			l0.8-0.4l1.1,0.4l1.6,0.1l5.6-2.8l2.1-1.9l0.9-1.1l3,1.1l-2.4,2.6l-2.8,2.1l-5.1,3.8l-1.9,0.7l-4.1,1.4l-2.9,0.8l-0.7-0.3
			L689.2,218.3z"/>
		<path id="OH_3_" class="st11" d="M561.2,226.3l1.2,11l3.4,29.3l2.8-0.1l1.6-0.6l2.6,1.3l1.2,3l3.8,0.1l1.3,1.4h1.2l1.7-1l2.2,0.4
			l1.1,0.9l1.3-1.4l1.6-1l1.7-0.3l0.4,1.9l1.1,0.7l1.9,1.4l0.6,0.1l1.4-0.1l0.9-0.4v-1.5l1.2-1.1l0.1-3.4l0.8-3l1.4-0.9l0.7,0.5
			l0.7,0.8l0.5,0.1l0.3-0.3l-0.6-1.9v-1.6l0.8-1l1.8-2.6l0.9-1.1l1.6,0.4l1.5-1.1l2.1-2.4l1.6-2.6l0.1-3.8l0.4-3.6v-3.3l-0.9-2.3
			l0.9-1.3l0.9-0.9l-0.4-2l-3.1-18.2l-4.4,2.6l-2.8,1.6l-2.4,2.6l-2.9,2.8l-2.3,0.6l-2.1,0.4l-3.9,1.9l-1.5,0.1l-2.4-2.2l-3.7,0.4
			l-1.9-1.1l-1.6-0.9L561.2,226.3z"/>
		<path id="OK_3_" class="st11" d="M381.7,314.5l-1.3,17.3l-0.6,12.8l0.1,1.1l2.9,2.6l1.2,0.6h0.6l0.6-1.5l1.1,1.4l1.1,0.1l0.2-0.1
			l0.1-0.8l2,1l-0.3,2.5l2.7,0.4l1.8,0.7l3,0.4l1.6,1.1l1.8-1.2l2.5,0.5l1.6,2.2l0.9,0.1v1.6l1.5,0.5l1.8-1.5l1.3,0.4l1.9,0.1
			l0.5,1.6l3.1,1.3l1.2-0.2l1.4-3h0.9l0.8,1.5l3,0.6l2.4,0.9l2.1,0.6l1.1-0.5l0.5-1.9h3.2l1.4,0.6l1.9-1.4h1l0.4,1h2.6l1.4-1.3
			l1.6,0.4l1.2,1.6l2.1,1.2l2.4,0.6l1.4,0.9l-0.2-26.8l-1-7.8l-0.1-6.1l-1.1-4.7l-0.4-4.8l0.1-3.1l-9,0.2l-33-0.4l-31.9-1.5
			l-29.6-1.3l-0.3,7.6L381.7,314.5z"/>
		<path id="OR_3_" class="st11" d="M136.1,189l20.1,5.1l19.6,4.6l12.1,2.6l6.3-25l0.9-3.1l1.7-3.9l-0.5-0.9l-1.8,0.1l-0.9-1.3
			l0.4-1.1l0.3-2.4l3.4-4.1l1.4-0.6l0.6-0.6l0.5-1.9l0.6-0.8l2.8-4.1l2.6-2.9l0.1-2.3l-2.4-1.8l-0.9-3.2l-9.3-2.7l-10.9-2.5
			l-10.5,0.3l-0.8-0.9l-3.6,1.3l-3.2-0.3l-1.7-1.1l-0.9,0.4l-3.3-0.2l-1.4-1l-3.4-1.3l-0.8,0l-3.2-0.9l-1.3,1.1l-4.5-0.2l-3.8-2.7
			l0.1-6.6l-1.5-2.5l-2.9-0.4l-0.5-1.8l-1.7-0.4l-4.1,1.5l-1.6,4.6l-2.3,7.1l-2.3,4.6l-3.6,10.1l-4.6,9.7l-5.8,9l-1.4,2.1l-0.6,6.1
			l-0.9,4.3l1.9,2.5L136.1,189z"/>
		<path id="PA_3_" class="st11" d="M613.1,212.7l0.9-0.4l4.1-3.9l0.5,4.9l23.9-4.6l26.3-5.6l1.6,1.6l2.2,0.3l1.4,4l1.7,1.4l2,0.3
			l0.1,0.1l-1.9,2.3v2.2l-1.4,2.2l-0.1,1.4l0.9,0.9l-0.1,1.4l-1.7,0.8l0.7,2.4l0.1,0.8l2,0.2l0.6,1.8l4.2,2.8v0.3l-2.2,2.1l-1.1,1.6
			l-1.2,2l-1.9,0.9l-1,0.2l-1.5,0.9l-1.1,1l-16,3.1l-27.6,5.6l-8.1,1l-2.8,0.5l-3.6-16l-3.1-18.5L613.1,212.7z"/>
		<path id="RI_3_" class="st11" d="M710.8,201l-0.6-3.1l-1.1-4.3l4.1-1.1l1.1,0.9l2.4,3.1l2,3.1l-2,1l-0.9-0.1l-0.8,1.3l-1.7,1.4
			l-2,0.8L710.8,201z"/>
		<path id="SC_3_" class="st11" d="M629.1,370.6l-1.5-0.7l-1.4-4l-1.8-1.6l-1.8-0.4l-1.1-3.3l-2.1-4.6l-3-1.3l-1.4-1.3l-0.9-1.9
			l-1.7-1.4l-1.6-0.9l-1.6-2.1l-2.3-1.7l-3.1-1.2l-0.3-1l-1.6-2l-0.4-1.1l-2.7-3.8l-2.4,0.1l-2.8-1.8l-0.9-0.9l-0.1-1l0.4-1.1
			l1.9-0.9l-0.6-1.4l4.6-1.9l6.6-3.2l5.1-0.6l11.7-0.4l1.6,1.4l1.3,2.5l3.3-0.6l9-1.1l1.9,0.6l8.9,5.3l7.2,5.9l-3.8,3.8l-1.9,4.3
			l-0.4,4.5l-1.1,0.6l-0.8,1.9l-1.7,0.4l-1.5,2.6l-1.9,1.9l-1.6,2.4l-1.1,0.6l-2.6,2.4l-2.1,0.1l0.7,2.3l-3.6,3.8l-1.6,1.1
			L629.1,370.6z"/>
		<path id="SD_3_" class="st11" d="M423.8,204.8l-0.6,2.3l0.3,2.1l1.9,1.4l-0.9,3.8l-1.3,2.9l1.1,2.4l0.5,0.8l-0.9,0.1l-0.5-1.1
			l-0.4-1.4l-2.4-1.3l-3.4-1.1l-1.8-0.9l-2.1,0.1l-2.8,0.3l-2.7,0.9l-3.8-2.7l-1.9-1.7l-7.8,0.6l-29.6-1.7l-25.4-1.6l1.1-17.7
			l2-24.2l0.3-3.6l40.6,2.8l40.6,1.2v1.9l-0.9,1.1l-1.4,1.1l-0.1,1.6l0.8,1.6l2.9,2.4l0.4,1.9v25.6L423.8,204.8z"/>
		<path id="TN_3_" class="st11" d="M566.2,332.1l-9.3,0.9l-16.6,1.6l-26.8,1.9l-8.4,0.3l0.6-0.4l0.6-3.2l-0.9-2.6l2.8-1.6l0.3-1.8
			l0.9-3.1l2.1-6.8l0.4-4l0.2-0.1l8.8-0.1l9.7-0.6l0.1-2.8l2.5-0.1l21.7-2.4l38.5-3.7l7.3-1.1l5.4-0.1l1.7-1.4l0.9,0.2l-0.1,2.4
			l-0.3,1.1l-1.7,1.6l-1.1,2.6l-1.4-0.3l-1.7,0.6l-1.6,2.4l-1-0.1l-0.6-0.9l-0.8,0.3l-3.1,2.9l-0.6,2.2l-3,1.6l-3.1,2.6L586,321
			l-3.1,2l-0.4,2.6l-1.8,0.4l-1.4,1.2l-0.1,3.4L566.2,332.1z"/>
		<path id="TX_3_" class="st11" d="M289.7,379.1l26.4,2.6l20.9,1.4l5.3-69.6l38.8,1.7l-1.2,16.6l-0.7,12.8l0.1,1.4l3.1,2.9l1.4,0.8
			h1.3l0.4-0.9l0.5,0.6l1.7,0.1l0.8-0.4V349l0.7,0.4l-0.3,2.6l3.2,0.5l1.7,0.6l3,0.5l1.9,1.3l2-1.4l1.9,0.4l1.6,2.2l0.6,0.1v1.5
			l2.4,0.8l1.8-1.5l1.1,0.4l1.5,0.1l0.4,1.5l3.7,1.4l1.6-0.4l1.4-2.9h0.1l0.8,1.4l3.3,0.6l2.4,0.9l2.3,0.7l1.7-0.9l0.5-1.6h2.6
			l1.5,0.7l2.1-1.4h0.3l0.4,1h3.4l1.4-1.3l0.9,0.3l1.2,1.5l2.4,1.4l2.4,0.7l1.8,1l1.9,1.4l2.2-0.9l1.5,0.6l0.5,14.3l0.5,6.8l0.4,2.9
			l1.9,3.1l0.6,3.2l3,4.2l0.2,2.2l0.4,0.6l-0.5,5.5l-2.1,3.4l0.9,1.9l-0.4,1.7l-0.6,5.1l-0.9,2.1l0.2,3l-4,1.1l-7.1,3.2l-0.7,1.4
			l-1.9,1.4l-1.5,1.1l-0.9,0.6l-4.1,3.8l-1.9,1.5l-3.8,2.3l-4.1,1.7l-4.5,2.4l-1.3,1.1l-4.1,2.6l-2.4,0.4l-2.8,3.9l-2.9,0.2
			l-0.7,1.4l1.6,1.4l-1.1,3.9l-0.9,3.2l-0.8,2.8l-0.6,3.2l0.6,1.7l1.3,5l0.7,4.3l1.3,1.9l-0.7,1.1l-2.2,1.4l-4.1-2.8l-3.9-0.8
			l-0.9,0.4l-2.3-0.4l-3-2.2l-3.7-0.8l-5.4-2.4l-1.5-2.8l-0.9-4.6l-2.3-1.4l-0.4-1.6l0.4-0.4l0.2-2.4l-0.9-0.4l-0.4-0.7l0.9-3.1
			l-1.1-1.6l-2.3-0.9l-2.4-3.1l-2.6-4.7l-3-1.9l0.1-1.4l-3.8-8.8l-0.6-3l-1.3-1.4l-0.1-1.1l-4.3-3.8l-1.9-2.2V422l-1.9-1.5l-4.8-0.8
			l-5.3-0.4l-2.2-1.6l-3.2,1.3L339,420l-1.6,2.3l-0.7,2.6l-3.1,4.3l-1.7,1.7l-1.9-0.7l-1.3-0.8l-1.4-0.4l-2.8-1.6V427l-1.3-1.4
			l-3.7-1.5l-5.3-5.6l-1.6-3.4v-5.8l-2.3-4.6l-0.4-1.9l-1.1-0.7l-0.8-1.5l-3.6-1.5l-0.9-1.1l-5.1-5.6l-0.9-2.3l-3.4-1.6l-1.1-3.1
			l-1.9-2.1l-1.2-0.4L289.7,379.1z"/>
		<path id="UT_3_" class="st11" d="M250.9,293.8l17.5,2.6l1.4-9.8l5-36l1.6-15.7l-23-2.5l1.6-9.3l1.3-7.6l-24.7-4.3l-8.9-1.8
			l-7.6,37.7l-3.8,21.4l-2.4,11l-1.2,6.6L250.9,293.8z"/>
		<path id="VA_3_" class="st11" d="M683,264.8l-0.1,2l-2.1,2.7l-0.3,3.3l0.4,2.4l-1.3,3.6l-1.6,1.4l-1.1-3.3l0.3-3.8l1.1-3l0.5-2.4
			l-0.1-1.2L683,264.8z M640.1,296.6l-27.5,4l-3.4-0.1l-1.6-0.2l-1.8,1.4l-5.2,0.1l-7.3,1.1l-4.8,0.4l2.9-1.9l2.9-1.6v-1.5l4.1-5.2
			l2.9-2.6l1.6-1.8l2.6,3.1l2.7,0.6l1.9-0.7l1.4-1.1l1.7,0.9l3.3-0.9l1.2-3.1l1.7,0.5l2.3-1.6l1.1,0.3l2-2.3l0.1-1.9l-0.6-0.9
			l3.4-7.5l1.3-3.7l0.4-3.4l0.5-0.1l0.8,1.2l1.1,0.9l2.8-0.1l1.2-5.8l2.1-0.4l0.6-1.9l2-1.6l0.8-1.5l1.3-3.1l0.1-3.3l2.6,1l4.7,2.2
			l0.2-3.7l2.4,0.9l-0.4,2.1l6.1,2.2l1,1.3l-0.6,2.4l-0.9,0.9l-0.4,1.2l0.4,1.7l1.4,0.9l2.8,1l2.1,0.7l3.5,0.6l1.6,1.5l2.3,0.3
			l0.6,0.9l-0.3,3.4l1,0.8l-0.4,1.4l0.9,0.6l-0.1,1l-1.9-0.1l0.1,1.1l1.6,1.1l0.1,1l1.3,1.3l0.4,1.8l-1.9,1l1.1,1.1l4.1-1.2l2.6,4.4
			L640.1,296.6z"/>
		<path id="VT_3_" class="st11" d="M681.6,155.1l1.7,4.6l0.6,3.8l-0.7,2.8l1.8,3.1l0.6,1.6l-0.5,1.9l2.4,1.1l2.1,7.7v3.8l8.2-1.5
			l-0.7-0.8l0.4-1.4l0.1-3.1l-0.7-1l0.1-3.4l0.6-6.6v-6.1l-0.8-1.3v-1.1l2-0.8l2.5-3.1v-2.6l-1.4-1.9l-0.2-4.1l-18.6,4.8
			L681.6,155.1z"/>
		<path id="WA_3_" class="st11" d="M141.2,124l-1.6-3.1l-2.9-0.5l-0.3-1.7l-1.8-0.4l-2.1-0.4l-1.3,0.7l-1.6-2.1l0.2-2.1l1.9-0.2
			l1.1-2.9l-1.9-0.8l0.1-2.6l3.1-0.4l-1.9-1.9l-1.1-5.1l0.4-2.1v-5.6l-1.3-2.3l1.6-6.7l1.5,0.4l1.7,2.1l1.9,1.9l2.3,1.4l3.2,1.5
			l2.2,0.4l2.1,1.1l2.4,0.7l1.6-0.1v-1.7l0.9-0.8l1.5-0.9l0.2,0.8l0.2,1.3l-1.6,0.4l-0.2,1.5l1.3,1.1l0.8,1.7l0.4,1.4l1.1-0.1
			l0.1-0.9l-0.7-0.9l-0.4-2.3l0.6-1.3l-0.4-1.1v-1.9l1.3-2.6l-0.8-1.9l-1.7-3.4l0.2-0.6l1-0.6l3.1,1.1l6.9,1.9l6.1,1.4l14.3,4.1
			l16.4,4.1l10.7,2.5l-3.4,12.5l-3.2,14.8l-2.4,11.6l-0.3,6.5l0,0l-9.2-2.7l-10.9-2.5l-10.3,0.2l-0.8-1.1l-4.1,1.5l-2.8-0.3
			l-1.9-1.3l-1.2,0.5l-3-0.2l-1.2-0.9l-3.7-1.3l-0.8-0.1l-3.4-1l-1.4,1.2l-4-0.2l-3.3-2.4L141.2,124z M148,84.5l1.4-0.1l0.4,1
			l1.1-1.1h1.6l0.6,1.1l-1.1,1.2l0.4,0.6l-0.5,1.4l-1,0.3c0,0-0.6,0.1-0.6-0.1s1.1-1.9,1.1-1.9l-1.2-0.4l-0.2,1.1l-0.5,0.4l-1.1-1.6
			L148,84.5z"/>
		<path id="WI_3_" class="st11" d="M474,154.1l2.1,0.4l2.1-0.4l5.3-2.3l2.1-1.4l1.5-0.6l1.4,1.1l-0.8,0.8l-1.4,2.2l-0.4,1.4l0.7,0.4
			l1.3-0.7l0.8-0.1l1.9,0.6l0.4,0.8l0.8,0.1l0.4-0.8l2.9,3.8l5.8,0.9l5.8,1.6l1.9,0.8l8.8,1.9l1.1,1.6l2.6,0.9l1.2,7.3l1.1,1
			l1.1,0.6l-0.8,1.6l-1.3,1.1l-1.5,3.4l-0.9,1.7l0.1,1.3l1.1,0.2l0.8-1.4l1.1-0.6l0.6-1.6l1.4-1.3l1.9-2.9l3-4.5l0.6-0.4l0.2,0.7
			l-0.1,1.6l-2.1,4.8l-1.9,4.1l-0.4,2.3l-0.4,1.9l0.6,0.9l-0.1,1.9l-1.4,1.7l-0.4,1.3l0.4,2.6l0.4,2.4l-1.1,1.9l-0.6,2.1l-0.7,2.2
			l0.8,1.7l0.4,4.3l1.1,3.2l-0.1,2.1l-11.3,1.3l-12.5,0.7h-9.1l-0.5-1.1l-2.1-0.3l-1.9-0.9l-1.6-2.6l-0.2-2.6l1.4-2.1l-0.4-1
			l-1.5-1.6l-0.6-2.4l-0.4-4.8l-1.5-1.8l-5-3.2l-2.7-3.8l-2.4-0.7l-1.6-2h-2.3l-2.1-2.4l-0.4-4.6l0.1-2.7l1.1-2.2l-0.6-2.3l-1.8-2
			l1.3-3.8l3.7-2.7l1.1-1.4l-0.1-5.8l0.1-2l1.7-2L474,154.1z"/>
		<path id="WV_3_" class="st11" d="M629,257l4.1-4.3l1.9-0.6l1.1-1.1l1.1-1.6l0.8,0.2l2.2-0.1l3.3-2.6l1.1-0.4l0.9,0.7l1.9,0.9
			l2.1,2.1l-0.3,3.1l-3.8-1.9l-3.4-1.3l-0.1,4.2l-1.9,4.1l-2.1,1.7l-0.6,1.6l-2.1,0.4l-1.2,5.8l-2,0.1l-0.8-0.7l-0.9-1.4l-1.6,0.4
			l-0.4,3.6l-1.3,3.6l-3.6,7.8l0.6,1l-0.1,1.4l-1.6,1.8l-1.1-0.3l-2.2,1.6l-2-0.6L616,290l-2.7,0.7l-1.8-0.9l-1.8,1.4l-1.6,0.5
			l-2.3-0.6l-2.7-3.2l-2.5-1.6l-1.8-1.8l-2.1-2.6l-0.4-1.6l-2-1.2l-0.4-0.9l-0.1-4l0.2,0.1l1.7-0.1l1.3-0.7v-1.6l1.2-1.1l0.1-3.7
			l0.6-2.6l0.8-0.5l0.3,0.2l0.7,0.8l1.2,0.4l0.8-0.9l-0.7-2.2V261l2.2-3.3l0.9-0.9l1.4,0.4l1.9-1.3l2.2-2.4l1.7-2.9l0.1-4l0.4-3.4
			v-3.5l-0.8-2.1l0.6-0.9l0.6-0.5l3.1,13.8l3.1-0.6l8-0.9L629,257z"/>
		<path id="WY_3_" class="st11" d="M339.7,191.1l-1.1,18.1l-3.1,31.4l-1.9-0.2l-59.4-6.5l-19.9-2.1l1.4-8.6l4.9-29.2l2.7-17.2l0.9-8
			l34.4,5l42.1,4.6L339.7,191.1z"/>
		<g id="DC_3_">
			<path id="DC1_3_" class="st11" d="M659.6,256.7l-0.8-1.1l-0.7-0.6l0.8-1.1l1.6,1.1L659.6,256.7z"/>
			<circle id="DC2_3_" class="st12" cx="659.2" cy="255.2" r="3.6"/>
		</g>
	</g>
</g>
<g id="Layer_2">
	<path class="st16" d="M601,263.2c-0.1,0-0.1-0.1-0.2-0.1"/>
	<radialGradient id="SVGID_1_" cx="463.2634" cy="384.9285" r="8.4013" gradientUnits="userSpaceOnUse">
		<stop  offset="0" style="stop-color:#F7D697"/>
		<stop  offset="0.1937" style="stop-color:#F7D593"/>
		<stop  offset="0.424" style="stop-color:#F6D188"/>
		<stop  offset="0.6729" style="stop-color:#F6CB75"/>
		<stop  offset="0.9335" style="stop-color:#F5C258"/>
		<stop  offset="0.9679" style="stop-color:#F5C154"/>
	</radialGradient>
	<path class="st13" d="M460.3,391.1c-7.6-3.1-5.6-5.5-5.6-5.5s-1-4.5,7.5-7.8c8.5-3.3,8.1,4.9,8.1,4.9s4.5,6.4-0.7,8.5
		C464.4,393.3,466.4,393.6,460.3,391.1z"/>
	<rect x="696.1" y="275" class="st22" width="120" height="94"/>
	<text transform="matrix(1 0 0 1 696.11 284.9399)" class="st23 st24 st25">MARCELLUS</text>
	<rect x="514.8" y="456" class="st22" width="106.7" height="22.7"/>
	<text transform="matrix(1 0 0 1 514.7767 465.9404)" class="st23 st24 st25">HAYNESVILLE</text>
	<rect x="303.3" y="501.5" class="st22" width="106.7" height="22.7"/>
	<text transform="matrix(1 0 0 1 303.2767 511.4404)" class="st23 st24 st25">EAGLE FORD</text>
	<rect x="243.1" y="446.9" class="st22" width="123.5" height="32.6"/>
	<text transform="matrix(1 0 0 1 273.6269 456.8597)"><tspan x="0" y="0" class="st23 st24 st25">PERMIAN </tspan><tspan x="10" y="16.8" class="st23 st24 st25">BASIN</tspan></text>
	<rect x="409.7" y="471.2" class="st22" width="106.7" height="53.5"/>
	<text transform="matrix(1 0 0 1 435.8028 481.1381)"><tspan x="0" y="0" class="st2 st24 st25">CORTEZ</tspan><tspan x="-14.5" y="16.8" class="st2 st24 st25">RESOURCES</tspan></text>
	
		<radialGradient id="SVGID_2_" cx="649.1968" cy="231.384" r="40.7921" gradientTransform="matrix(0.9815 -0.1916 0.1916 0.9815 -33.5424 129.2165)" gradientUnits="userSpaceOnUse">
		<stop  offset="0" style="stop-color:#F7D697"/>
		<stop  offset="0.1937" style="stop-color:#F7D593"/>
		<stop  offset="0.424" style="stop-color:#F6D188"/>
		<stop  offset="0.6729" style="stop-color:#F6CB75"/>
		<stop  offset="0.9335" style="stop-color:#F5C258"/>
		<stop  offset="0.9679" style="stop-color:#F5C154"/>
	</radialGradient>
	<path style="fill-rule:evenodd;clip-rule:evenodd;fill:url(#SVGID_2_);" d="M677.5,210.4c0,0.3,0,0.5,0,0.8
		c-0.6,2.3-4.1,7.2-6.5,8.3c-1.2,0.2-2.4,0.5-3.6,0.7c-1.8,2.1-3.6,4.1-5.3,6.2c-0.8,0.2-1.6,0.4-2.4,0.6c-0.6,0.4-1.1,1.1-1.9,1.6
		c-1.8,1.3-3.6,4.8-7.3,4.1c-1.5-0.4-0.4-5.6,0.1-6.6c2.1-0.6,3.5-2,4.3-3.5c-0.4-2.5-1.2-4.8-2.7-5.7c-4.1,0.8-13,10.9-13.7,13.9
		c-0.3,1.5-0.5,4.3-0.6,5.6c0.2,0.9,0.4,1.8,0.5,2.7c-0.3,1.3-1.1,3.5-1.5,5c0.6,0.3,0.7,0.2,0.9,1.2c0.2-0.1,0.4-0.3,0.5-0.4
		c0.7-1,0.3-2.3,0.6-3.5c0.6-3.1,2.3-11.6,5.8-12c0.6,0.7,1.2,1.4,1.8,2.1c1.3,2.8-1.6,6.4-2.1,8.5c-0.3,1.5,0.9,3.6,1.1,4.1
		c-0.5,0.2-1.1,0.3-1.6,0.5c0.2,1.2,1.2,1,1.7,2.5c-0.4,2-2.3,7.3-3.6,8.5c-1.2,0.9-1.8,0-3.4,0.2c0.2,1.2,0.3,1.3,0.7,2.2
		c-0.2,0.1-0.4,0.2-0.6,0.3c0.3,0.6,0.6,1.1,1,1.7c-1,1.7-2.6,4.3-3,6.2c-0.9,3.8-0.3,8.9-5.6,8.9c-0.2-0.2-0.5-0.4-0.7-0.6
		c-0.1-0.6-0.1-1.1-0.2-1.7c0.8-2.3,4.5-7.9,3.2-10.6c-1,0.1-1.4,0.1-1.5,0.9c-0.5,0.6-0.6,2.3-0.2,3.2c-0.8,0.2-0.8,0.3-1.3,0.7
		c0.3,2.4-1,7.5-3.2,8.3c-2.8-3.7-9.5,1.8-12.3-2.1c-1.2-2.3-0.6-6,0.4-7.4c0.3,0.1,0.5,0.1,0.8,0.2c-0.2-1-0.4-1.9-0.6-2.9
		c-2.9,0.1-4.6-5.8-5.5-8.4c-0.5-0.7-1.7-3.8-1.3-4.9c-1.9-1.7-0.6-4.2-0.6-4.8c0.2-2.6-1.4-2.4,0.5-4.5c1.2-1.3,2.8-2.6,4.1-3.1
		c5.6-1.4,6.6-2.7,9-6.7c-0.2-1-0.5-1.3-1-1.8c0.7-1.5,1.5-3,2.2-4.5c-1.2-1.4-3.3-0.8-4.5-2.2c0-1.1,2.5-5.3,3.2-5
		c3.1,1.3,3.7,7.5,6.8,8.6c0.2,0,0.4,0,0.6,0c0.7-0.9,1.4-1.5,1.3-3.1c-2.9-2.3-5.8-2.8-5.8-7.9c1-0.9,2-1.5,2.4-2.8
		c0-0.1,0-0.1,0-0.2c-0.9,0.2-2,0.5-2.5,0.2c2.1-0.3,3.4-0.7,5-1.6c1.4-0.8,2-2.6,2.8-3.8c1-1.4,3.1-3,4.3-4.1
		c0.2,0,0.4-0.1,0.6-0.1c-0.1-0.6-0.2-1.1-0.3-1.7c0.1-1,0.3-1.5,0.8-2.2c5.4-1,4.8,0.6,8,0.9c5,0.6,5.6-5.5,6.6-7.8
		c7.4-1.9,11.1-2.6,17-1.5c1.5,0.3,2.6-0.5,3.9-0.1c1,0.3,2,1.4,3,1.6c2.4,0.6,4.1-0.2,5.9,0.7c0.4,0.4,0.8,0.8,1.2,1.2
		c0.5,3.2-0.2,8.6-1.6,10.8c-0.9,0.8-1.7,1.7-2.6,2.5c-0.5,1.3-0.4,2.6-1,3.8C678,210.3,677.8,210.4,677.5,210.4z"/>
	<radialGradient id="SVGID_3_" cx="341.8708" cy="386.7164" r="37.1656" gradientUnits="userSpaceOnUse">
		<stop  offset="0" style="stop-color:#F7D697"/>
		<stop  offset="0.1937" style="stop-color:#F7D593"/>
		<stop  offset="0.424" style="stop-color:#F6D188"/>
		<stop  offset="0.6729" style="stop-color:#F6CB75"/>
		<stop  offset="0.9335" style="stop-color:#F5C258"/>
		<stop  offset="0.9679" style="stop-color:#F5C154"/>
	</radialGradient>
	<path style="fill-rule:evenodd;clip-rule:evenodd;fill:url(#SVGID_3_);" d="M373.2,353.1c2.6,2.1,1.3,10.6,0,13.7
		c-9.1,20.9,7.5,40.7,2.4,58.7c-0.3,0.1-0.6,0.2-1,0.3c-8.3,2.7-20.8-12.2-25.4-15.5c-7.7-5.5-23.4-4-30.8-9.7
		c-4.4-3.4-14.9-22.9-10.3-32.9c0.4-0.8,20.4-19,21.6-19.7c2.1-1.1,9.1-0.5,9.3-0.5C339.3,347.5,370.6,349.9,373.2,353.1z"/>
	<line class="st31" x1="667.7" y1="212.4" x2="722.8" y2="267.6"/>
	<line class="st31" x1="334.7" y1="378" x2="301.3" y2="438.2"/>
	<circle class="st23" cx="666.7" cy="211.9" r="4.7"/>
	
		<radialGradient id="SVGID_4_" cx="399.3994" cy="429.9829" r="27.9762" gradientTransform="matrix(1 -4.547973e-03 4.547973e-03 1 -1.036 2.5201)" gradientUnits="userSpaceOnUse">
		<stop  offset="0" style="stop-color:#F7D697"/>
		<stop  offset="0.1937" style="stop-color:#F7D593"/>
		<stop  offset="0.424" style="stop-color:#F6D188"/>
		<stop  offset="0.6729" style="stop-color:#F6CB75"/>
		<stop  offset="0.9335" style="stop-color:#F5C258"/>
		<stop  offset="0.9679" style="stop-color:#F5C154"/>
	</radialGradient>
	<path style="fill-rule:evenodd;clip-rule:evenodd;fill:url(#SVGID_4_);" d="M422.6,405.8c1.7,0.2,3.4,0.4,5.1,0.5
		c1.1,0.7,2.3,1.5,3.4,2.2c0,1.3,0,2.6,0,3.9c-6.4,1.2-10.3,8-13.5,12.5c0.4,2.1,0.8,4.1,1.2,6.2c-9.5,7.6-22.4,33.6-41.1,21
		c-0.1-0.6-0.7-1-1.1-1.7c-0.8-1.4-1.7-3.1-2.6-4.6c-0.3-0.6-2.7-1.4-3.1-2.2c-0.2-0.4,0.7-0.4,0.3-1.2c-0.5-0.9-1.4-3.2-1.6-3.8
		c1.3-1.5,2.8-3.1,4.1-4.6c6.4-1.8,11.4,2.2,19.7-0.1C409.1,429.7,414.1,417.3,422.6,405.8z"/>
	<circle class="st23" cx="390.9" cy="445.2" r="4.7"/>
	<line class="st31" x1="389.8" y1="447" x2="350.4" y2="494.6"/>
	<line class="st33" x1="414" y1="386.7" x2="455.4" y2="461.3"/>
	<circle class="st34" cx="414" cy="386.2" r="9.7"/>
	<radialGradient id="SVGID_5_" cx="457.0632" cy="387.6643" r="14.9565" gradientUnits="userSpaceOnUse">
		<stop  offset="0" style="stop-color:#F7D697"/>
		<stop  offset="0.1937" style="stop-color:#F7D593"/>
		<stop  offset="0.424" style="stop-color:#F6D188"/>
		<stop  offset="0.6729" style="stop-color:#F6CB75"/>
		<stop  offset="0.9335" style="stop-color:#F5C258"/>
		<stop  offset="0.9679" style="stop-color:#F5C154"/>
	</radialGradient>
	<path style="fill-rule:evenodd;clip-rule:evenodd;fill:url(#SVGID_5_);" d="M456.6,372.1c1,0.4,1.9-0.2,3,0
		c3.6,0.8,10.8,6.4,11.7,9.7c-0.2,1.8-0.3,3.5-0.5,5.3c-0.1,0-3.8,6.9-6.1,7.8c-1.5,0.3-3.9-0.9-5.8-0.2c-3,1.2-3.7,6.4-5.9,8.6
		c-1.1,0.1-2.2,0.3-3.1-0.2c-3.7-1.6-2-6.4-3.4-10.6c-0.6-1.9-2.8-2.9-3.6-4.8c-0.6-1.4,3.1-5.3,3.6-6.1c0.6-1.1,0.2-4.8,0.6-6.2
		c0.8-0.3,1.6-0.6,2.3-0.9c1.4-0.3,2.9,1,4.5,0.3c0.1-0.6,0.2-1.1,0.3-1.7C455.3,372.8,456,372.6,456.6,372.1z"/>
	<circle class="st23" cx="458.6" cy="385.5" r="4.7"/>
	<line class="st31" x1="458.5" y1="386.2" x2="533.8" y2="448.1"/>
	<circle class="st23" cx="334.7" cy="378" r="4.7"/>
</g>
</svg>
